{"glyphs":{"0":{"ha":593,"x_min":7,"x_max":569,"o":"m 569 417 q 406 154 538 275 q 131 11 274 33 q 188 54 165 24 q 142 76 176 69 q 49 175 93 88 q 7 313 7 257 q 69 469 7 375 q 181 600 122 549 q 175 603 179 603 q 166 601 172 603 q 157 599 160 599 q 243 654 207 654 q 260 650 251 654 q 282 650 261 649 q 358 544 290 621 q 454 442 390 510 q 476 482 476 476 q 475 483 476 483 q 393 595 475 522 q 271 667 311 668 q 296 675 297 675 q 431 574 361 675 q 514 414 478 504 q 532 351 535 361 q 569 417 538 368 m 321 567 l 281 593 l 276 585 l 315 558 l 321 567 m 511 378 q 478 476 511 393 l 478 468 q 478 451 479 463 q 475 433 475 439 q 488 403 475 415 q 471 364 478 399 q 494 382 479 372 q 440 256 493 344 q 511 378 511 336 m 225 628 l 219 636 l 192 615 l 197 607 l 225 628 m 415 432 q 272 560 397 494 q 401 411 311 521 q 415 432 403 419 m 432 353 q 429 381 432 363 q 426 410 426 400 q 410 383 410 410 q 419 363 410 376 q 431 344 429 349 q 432 353 432 347 m 453 326 l 444 326 l 432 294 l 440 290 l 453 326 m 392 388 q 332 469 392 403 q 256 549 279 528 q 193 446 229 514 q 151 339 151 368 q 189 256 151 325 q 239 176 226 186 q 326 282 265 201 q 392 388 392 368 m 415 331 q 400 363 415 349 q 254 167 367 286 q 351 242 286 181 q 415 331 415 304 m 453 228 l 446 232 l 351 133 l 357 128 l 453 228 m 381 239 l 375 244 l 282 151 l 288 146 l 381 239 m 210 147 q 158 232 193 175 q 128 324 128 282 q 147 382 128 367 q 192 494 161 421 q 92 306 157 447 q 210 147 154 190 m 217 565 q 97 447 164 547 q 31 290 31 347 q 68 182 31 240 q 150 100 106 124 q 56 315 56 276 q 217 565 56 399 m 113 411 q 79 331 79 343 q 83 317 79 324 q 88 308 88 310 q 113 411 97 343 m 326 113 l 321 118 l 313 110 l 318 103 l 326 113 m 283 129 l 260 136 l 260 128 l 281 121 l 283 129 m 189 133 l 108 244 l 101 239 l 181 128 l 189 133 m 240 88 q 221 111 238 93 q 206 92 206 96 q 207 88 206 89 l 240 88 z "},"1":{"ha":208,"x_min":-1,"x_max":150,"o":"m 150 17 q 125 40 136 18 q 113 4 122 28 l 94 28 q 38 22 63 18 l 36 -1 q 7 76 17 11 q 1 167 -1 131 l 28 628 q 36 549 36 600 q 28 419 36 506 q 19 289 19 332 q 22 167 19 249 q 25 44 25 85 q 39 33 29 39 q 51 353 42 140 q 101 646 64 588 q 67 397 82 586 q 54 136 54 242 q 64 106 54 114 l 92 500 q 107 556 93 522 q 128 611 125 600 q 138 568 129 596 l 150 592 l 150 17 m 129 101 l 129 561 l 119 561 l 119 101 l 129 101 m 113 429 l 101 429 l 83 94 l 93 94 l 113 429 m 69 53 l 69 99 l 60 99 l 60 53 l 69 53 z "},"2":{"ha":535,"x_min":3,"x_max":500,"o":"m 500 18 q 476 32 494 19 q 450 40 461 40 q 415 11 433 40 q 201 47 321 47 q 131 21 185 47 q 51 -12 72 -8 q 111 50 54 0 q 103 54 108 54 q 22 24 68 54 q 33 46 24 33 q 50 65 49 61 q 3 67 49 68 q 197 238 96 114 q 315 458 297 361 q 255 497 294 479 q 186 515 215 515 q 103 501 158 515 q 21 486 49 486 q 153 539 115 539 q 339 514 188 539 q 224 558 314 558 q 88 535 136 558 q 189 578 124 569 q 303 590 226 582 q 246 593 294 593 q 226 597 239 593 q 207 600 214 600 q 113 586 163 600 q 28 546 56 571 q 115 601 44 581 q 222 618 171 618 q 375 597 308 618 q 471 501 471 567 l 471 443 q 455 473 464 447 q 426 510 446 499 q 417 482 417 501 q 429 457 417 474 q 442 435 442 440 q 427 392 442 418 q 411 351 413 365 l 417 350 q 426 354 419 350 q 435 358 432 358 q 361 229 425 307 q 261 111 335 197 q 393 81 324 101 q 500 18 490 51 m 436 558 l 376 583 l 376 575 l 432 549 l 436 558 m 407 514 l 368 553 l 361 546 l 400 508 l 407 514 m 344 549 l 344 560 l 310 565 l 310 556 l 344 549 m 386 472 q 364 479 379 475 q 357 456 357 471 q 381 438 357 438 q 383 455 381 443 q 386 472 386 467 m 319 489 l 319 499 l 286 506 l 286 496 l 319 489 m 389 386 l 381 390 l 294 249 l 303 244 l 389 386 m 363 419 l 354 425 l 211 225 l 218 219 l 363 419 m 404 329 l 207 114 l 235 114 q 331 214 281 153 q 404 329 386 282 m 283 268 l 129 108 l 156 108 q 225 176 179 108 q 283 268 225 176 m 369 50 q 240 89 276 89 q 207 67 225 89 l 369 50 m 196 85 l 190 90 l 169 69 l 175 64 l 196 85 m 140 68 l 140 79 l 100 86 l 100 75 l 140 68 z "},"3":{"ha":460,"x_min":-3,"x_max":425,"o":"m 425 203 q 293 61 425 135 q 96 -12 179 -3 q 89 36 94 4 q 22 38 88 38 q 50 50 44 46 q 72 71 67 58 q 94 65 100 65 q 257 164 126 65 q 161 257 235 238 l 22 271 q 39 269 29 269 q 107 279 54 269 q 83 297 103 296 q 51 296 106 296 q 22 301 35 296 q 43 317 35 317 q 197 396 85 317 q 335 513 303 469 l 319 521 q 113 372 251 429 q 204 438 128 388 q 286 518 261 475 q 226 533 271 533 q 47 493 168 533 q 167 550 88 528 q 299 571 235 569 l 299 590 q 268 606 272 604 q 124 565 224 606 q -3 492 24 524 q 17 549 17 543 q 4 565 17 563 q 94 624 25 596 q 203 653 163 653 q 286 638 239 653 q 353 594 344 619 q 322 564 322 586 q 333 533 322 553 l 340 532 q 365 567 357 532 q 356 569 363 569 q 335 565 346 569 q 382 596 349 579 q 383 581 383 589 q 380 547 383 569 q 376 514 376 525 q 381 513 378 513 l 406 526 q 226 363 369 449 q 281 347 250 347 q 336 390 290 347 l 393 443 q 304 339 394 413 q 425 203 425 263 m 40 485 l 18 478 l 18 486 l 38 493 l 40 485 m 364 492 l 357 500 l 232 396 l 236 388 l 364 492 m 210 371 l 206 379 l 186 372 l 186 364 l 210 371 m 250 326 l 250 338 l 215 338 l 215 326 l 250 326 m 328 240 q 288 279 318 267 q 233 297 272 286 q 314 226 261 275 q 328 240 318 233 m 297 208 l 201 289 l 196 281 l 292 201 l 297 208 m 385 167 l 379 175 l 183 35 l 189 26 l 385 167 m 190 64 q 110 38 139 38 q 117 33 110 38 q 131 29 124 29 q 190 64 156 29 z "},"4":{"ha":500,"x_min":-19,"x_max":481,"o":"m 481 629 q 410 379 444 538 q 351 125 361 157 q 376 174 367 135 q 361 44 361 135 q 315 0 361 15 q 347 150 318 36 q 372 294 372 247 q 306 143 349 279 q 251 -31 276 50 q 242 35 249 -8 q 217 17 229 17 q 207 21 213 17 q 258 240 226 93 q -1 272 149 274 q 78 292 25 279 q 30 303 68 303 q -19 317 -8 304 l 18 317 q 72 482 60 451 q 160 619 117 596 q 114 536 136 578 q 79 449 86 483 q 131 532 93 461 q 200 611 167 599 q 71 369 103 467 q 89 365 74 365 q 158 467 107 365 q 229 593 217 581 q 131 369 199 518 q 172 364 136 364 l 276 365 q 322 513 296 458 q 418 635 356 579 l 340 358 q 392 442 358 363 q 432 538 411 490 q 481 629 456 593 m 397 400 l 388 400 l 375 349 l 385 349 l 397 400 m 338 276 l 332 310 l 321 310 l 328 276 l 338 276 m 263 300 l 263 335 q 233 324 244 324 q 211 326 226 324 q 189 328 196 328 q 113 321 158 328 q 263 300 182 321 m 317 218 l 308 239 q 274 119 292 190 q 317 218 292 156 m 257 279 q 235 285 250 279 q 211 292 219 292 l 101 292 q 200 269 135 288 l 257 279 m 94 340 l 60 347 q 54 318 57 338 l 88 318 q 94 340 94 325 z "},"5":{"ha":521,"x_min":1,"x_max":522,"o":"m 522 621 q 468 593 493 593 q 460 599 463 593 q 453 604 458 604 q 210 544 399 604 l 229 544 q 351 558 292 544 l 472 586 q 504 551 488 575 q 373 538 467 539 q 239 519 279 536 q 174 418 178 493 q 339 390 263 414 q 450 293 450 356 q 400 131 450 188 q 261 24 378 106 q 201 4 233 4 q 82 44 144 4 q 1 139 14 88 q 151 36 118 36 q 163 38 156 36 q 49 160 57 121 q 98 116 60 156 q 161 69 136 76 q 204 81 164 71 q 140 136 185 101 q 78 189 96 171 q 101 193 94 188 q 79 219 93 201 q 171 164 165 167 q 274 136 226 136 q 314 170 290 136 q 336 222 338 204 q 247 268 311 243 q 153 293 183 293 q 25 275 106 293 q 72 431 40 314 q 126 583 99 526 q 96 589 119 590 q 238 632 115 608 q 394 653 347 653 l 456 653 q 444 626 454 638 q 522 621 463 619 m 403 619 l 344 629 q 204 601 297 629 l 221 589 q 240 581 232 581 q 318 597 254 581 l 403 619 m 432 306 q 372 356 425 325 q 296 388 318 388 l 258 388 q 340 350 289 383 q 411 293 388 321 q 432 306 422 304 m 383 289 q 368 310 383 294 q 360 282 367 289 l 364 282 q 383 289 378 282 m 164 496 l 154 496 l 142 425 l 151 425 l 164 496 m 336 331 q 194 376 242 376 q 163 354 175 376 l 186 354 q 336 331 274 354 m 419 285 q 360 254 394 276 q 364 236 364 246 q 349 194 364 222 q 328 149 335 167 q 385 210 363 172 q 419 285 392 222 m 428 228 l 419 233 l 338 111 l 344 104 l 428 228 m 143 532 q 105 461 132 522 q 78 385 78 400 l 78 342 q 107 347 88 344 q 90 374 103 363 q 129 446 117 389 q 143 532 136 489 m 347 303 q 257 325 315 321 q 164 333 190 331 l 157 311 q 340 251 221 299 q 347 303 344 268 m 122 333 l 113 333 l 106 314 l 114 310 l 122 333 m 317 118 l 311 126 l 281 100 l 286 92 l 317 118 m 257 110 l 257 119 l 229 126 l 229 117 l 257 110 m 258 67 l 231 76 q 174 56 213 69 q 210 40 204 40 q 238 53 219 40 q 258 67 257 67 z "},"6":{"ha":543,"x_min":-4,"x_max":513,"o":"m 513 257 q 432 78 513 171 q 268 -15 351 -15 l 236 -10 q 303 11 275 -3 q 183 39 254 39 q 200 53 186 42 q 88 133 164 82 q 86 126 86 131 q 122 58 86 108 q 100 51 113 51 q 24 225 76 110 q 13 164 13 194 q 19 119 13 143 q -4 161 -4 140 q 63 433 -4 267 q 222 632 139 625 q 242 619 233 621 q 157 510 213 583 q 100 392 101 436 q 125 439 124 408 q 210 551 138 451 q 322 656 256 615 q 154 403 144 474 q 129 374 142 388 q 117 339 117 356 q 126 303 117 319 q 311 422 240 422 q 332 410 317 422 q 354 399 347 399 q 393 407 376 399 q 350 421 378 411 q 366 425 354 421 q 383 429 378 429 q 428 401 401 429 q 469 363 460 368 q 513 257 513 338 m 490 292 l 471 351 l 463 347 l 482 292 l 490 292 m 422 315 l 393 375 l 385 372 l 413 315 l 422 315 m 197 593 l 189 599 l 119 517 l 128 511 l 197 593 m 476 231 q 461 285 476 250 q 439 339 440 332 q 453 231 453 296 q 449 153 453 194 q 476 231 476 208 m 274 386 l 269 394 l 243 382 l 243 372 l 274 386 m 350 321 q 343 356 347 333 q 332 359 340 356 q 318 363 324 363 q 257 331 304 363 q 199 286 218 304 q 325 322 264 322 q 350 321 338 322 m 435 228 q 431 247 435 235 q 426 267 426 260 l 426 243 q 385 106 426 171 q 421 160 404 115 q 435 228 435 200 m 399 228 q 383 290 399 243 l 383 279 q 321 113 383 211 q 349 104 331 108 q 399 228 399 172 m 100 469 l 92 469 l 72 406 l 82 406 l 100 469 m 436 106 l 429 111 l 410 92 l 415 85 l 436 106 m 356 226 l 356 301 l 289 301 q 171 240 264 301 q 220 167 176 211 q 293 122 264 122 q 330 167 304 122 q 356 226 356 213 m 388 57 l 382 64 l 361 50 l 367 42 l 388 57 m 69 386 l 61 386 l 46 315 l 54 315 l 69 386 m 333 86 l 310 94 l 310 86 l 329 78 l 333 86 m 357 43 q 308 35 338 36 q 326 21 311 21 q 357 43 342 21 m 308 65 q 288 81 301 69 l 272 65 q 257 47 258 51 q 264 42 257 43 q 308 65 289 46 m 194 85 q 88 289 88 164 q 90 314 88 301 q 78 273 88 306 q 68 233 68 240 q 111 146 68 181 q 194 85 111 146 m 53 299 l 51 308 q 32 282 46 299 l 42 249 q 53 299 53 285 m 235 60 l 235 69 l 207 76 l 207 67 l 235 60 z "},"7":{"ha":488,"x_min":-11,"x_max":475,"o":"m 475 583 q 440 565 468 578 l 443 582 l 442 589 q 397 503 418 582 q 371 399 382 444 q 215 47 317 282 q 232 67 225 53 l 240 44 q 207 18 228 19 q 199 44 199 25 q 296 276 199 57 q 393 558 393 496 l 156 54 q 169 103 169 74 q 140 58 154 101 q 111 6 125 11 q 67 22 93 18 l 301 554 q 43 469 188 532 q 174 533 78 503 q 313 592 278 567 q 174 557 274 592 q 31 506 118 538 q 54 533 46 519 q -11 511 21 528 q 103 582 18 551 q 235 628 146 597 q 231 632 233 631 q 28 565 201 632 q 165 635 46 599 q 325 667 272 667 q 369 658 340 667 q 414 647 410 647 q 385 621 407 632 l 394 600 q 438 610 417 610 q 471 608 450 610 l 475 583 m 339 557 l 329 557 l 322 538 l 331 533 l 339 557 m 360 629 l 360 639 l 61 542 l 61 533 l 360 629 m 315 504 l 304 504 l 299 469 l 308 469 l 315 504 m 303 468 l 293 468 l 286 439 l 296 439 l 303 468 m 231 293 l 222 293 l 214 274 l 224 269 l 231 293 m 218 269 l 210 269 l 203 249 l 211 246 l 218 269 m 207 244 l 197 244 l 136 111 l 144 107 l 207 244 z "},"8":{"ha":608,"x_min":3,"x_max":589,"o":"m 589 224 q 473 92 589 182 q 311 1 357 1 q 89 85 206 1 q 68 79 82 85 q 47 74 54 74 q 3 133 3 74 q 33 238 3 169 q 92 335 64 307 q 63 365 81 344 q 113 356 82 365 l 128 364 q 57 478 57 433 q 157 601 57 524 q 306 679 257 679 q 439 614 347 679 q 531 511 531 549 q 492 433 531 490 q 435 364 454 376 q 481 301 447 344 q 490 308 486 308 q 500 306 494 308 q 494 282 494 293 q 510 242 494 268 l 539 260 q 561 251 551 260 q 451 124 536 189 q 313 21 406 89 l 318 21 q 464 104 365 21 q 589 229 544 172 l 589 224 m 464 531 l 464 557 q 442 576 457 567 q 422 535 422 539 q 443 511 422 528 l 464 531 m 435 585 q 354 619 404 619 q 310 608 339 619 q 274 585 282 596 q 289 588 281 588 q 351 572 311 588 q 410 554 392 556 q 435 585 410 576 m 478 497 q 460 478 458 488 l 460 468 q 444 481 446 469 q 344 399 414 449 l 383 399 q 438 439 400 399 q 478 497 475 479 m 467 422 l 460 429 l 410 389 l 415 381 l 467 422 m 250 633 l 243 639 l 199 594 l 204 588 l 250 633 m 424 507 l 419 513 l 311 415 l 315 408 l 424 507 m 393 533 q 290 565 342 565 q 221 528 251 565 q 171 461 221 528 q 243 397 217 397 q 328 449 272 397 q 393 533 383 501 m 436 329 l 415 351 l 410 344 l 429 324 l 436 329 m 203 522 l 193 522 l 186 503 l 194 499 l 203 522 m 457 247 q 390 338 461 294 q 357 315 365 325 q 457 247 389 289 m 333 379 l 329 388 l 297 374 l 297 365 l 333 379 m 194 594 q 117 531 176 592 q 133 535 122 533 l 140 532 q 125 488 122 511 l 125 475 q 157 536 133 501 q 194 594 189 585 m 368 360 q 357 361 363 361 q 315 339 335 361 q 324 335 315 339 q 339 331 332 331 q 368 360 361 344 m 297 397 l 293 406 l 279 399 l 279 389 l 297 397 m 494 219 q 479 247 494 232 l 475 192 q 381 117 442 168 q 408 110 390 114 q 494 219 494 179 m 214 392 l 144 447 l 139 440 l 208 383 l 214 392 m 151 381 q 116 443 147 399 q 83 506 85 488 l 74 460 q 106 413 81 439 q 151 381 133 382 m 429 211 q 358 276 429 257 q 254 301 351 278 q 282 310 268 311 q 186 317 213 317 q 297 247 219 290 q 408 175 374 203 q 429 211 429 196 m 393 161 q 167 289 317 225 q 140 247 140 264 q 188 183 140 213 q 281 142 207 171 q 342 108 335 119 q 393 161 360 125 m 164 324 l 136 324 q 82 229 82 256 l 83 224 l 128 269 q 164 324 149 294 m 306 106 q 203 151 253 121 q 131 229 138 190 q 126 221 131 228 q 122 208 122 214 q 199 140 122 176 q 306 106 263 111 m 274 72 q 106 168 217 103 l 106 135 q 274 72 153 82 m 92 192 q 64 211 82 197 q 60 203 64 210 q 57 190 57 196 q 78 157 57 171 q 92 192 85 169 m 271 35 l 118 93 l 118 85 l 268 26 l 271 35 m 79 97 q 76 115 79 103 q 74 132 74 126 q 31 138 43 132 l 31 169 q 21 126 21 131 q 53 90 21 90 q 69 94 60 90 q 79 97 78 97 z "},"9":{"ha":522,"x_min":-6,"x_max":493,"o":"m 493 453 q 336 198 493 372 q 97 13 179 24 q 104 114 101 46 q 90 101 99 101 q 75 119 85 101 q 8 90 54 110 q 24 144 10 115 q 57 179 38 172 q 29 117 47 158 q 235 272 119 147 q 93 317 188 286 q -6 406 -6 351 q 76 572 -6 482 q 235 661 158 661 q 397 589 301 661 q 493 453 493 517 m 457 489 q 393 564 438 526 q 307 606 343 606 q 294 604 300 606 q 363 536 326 583 q 424 463 406 481 q 457 489 443 464 m 379 483 q 249 581 265 581 l 224 581 q 253 561 235 575 q 209 498 249 547 q 169 429 169 449 q 218 379 169 397 q 294 365 256 365 q 313 367 306 365 q 379 483 346 418 m 369 389 l 368 390 q 358 403 358 390 q 343 363 343 369 l 343 361 q 356 374 343 363 q 369 389 369 385 m 408 378 l 400 378 l 358 297 l 368 293 l 408 378 m 199 588 l 171 588 q 89 481 132 544 q 199 588 153 540 m 194 494 l 188 500 l 168 479 l 174 472 l 194 494 m 122 579 l 115 583 l 47 508 l 54 504 l 122 579 m 328 326 l 319 332 l 286 293 l 294 286 l 328 326 m 160 507 l 151 511 l 97 449 l 106 443 l 160 507 m 357 272 l 349 278 l 308 226 l 315 221 l 357 272 m 294 346 q 186 372 251 354 q 111 394 135 394 l 110 394 q 181 353 122 371 q 265 336 231 336 q 294 346 286 336 m 85 468 l 82 476 l 68 469 l 68 460 l 85 468 m 278 271 l 272 278 l 240 253 l 244 244 l 278 271 m 253 313 q 56 389 113 342 q 136 330 79 360 q 229 300 193 300 q 253 313 239 300 m 344 308 l 338 313 l 179 142 l 186 138 l 344 308 m 44 369 l 25 403 l 17 399 l 36 365 l 44 369 m 158 147 l 150 150 l 128 111 l 136 107 l 158 147 z "}," ":{"ha":275,"x_min":0,"x_max":0,"o":""},"!":{"ha":265,"x_min":-11,"x_max":246,"o":"m 246 653 q 107 172 171 338 q 57 192 85 196 q 50 226 50 213 q 89 467 50 276 q 149 689 129 664 q 154 586 149 654 q 185 683 164 619 q 192 635 186 667 l 210 653 q 163 425 163 475 q 207 538 188 463 q 246 653 231 622 m 126 135 q 57 -92 118 111 l 57 -22 q 72 44 57 -11 q 93 118 82 79 q 47 0 65 83 q 10 -86 32 -72 q -11 -50 -11 -64 q 39 124 -11 31 q 58 106 51 124 q 81 142 68 115 q 126 135 96 139 m 154 586 l 143 586 l 138 515 l 147 515 l 154 586 m 142 474 l 142 508 l 131 508 l 131 474 l 142 474 m 136 438 l 136 472 l 125 472 l 125 438 l 136 438 m 165 418 l 156 418 l 149 372 l 160 372 l 165 418 m 154 369 l 143 369 l 138 329 l 147 329 l 154 369 m 129 429 l 119 429 l 78 246 l 86 246 l 129 429 m 57 106 l 49 106 l 24 17 l 32 17 l 57 106 m 26 15 l 18 15 l 6 -61 l 14 -61 l 26 15 z "},"\"":{"ha":331,"x_min":6,"x_max":335,"o":"m 335 678 q 256 553 303 636 q 176 426 204 464 q 158 444 164 444 q 140 439 163 444 l 135 440 q 174 563 160 524 q 232 672 201 636 l 200 575 q 224 614 213 578 q 251 667 238 656 q 261 636 254 656 q 293 665 285 663 q 335 678 301 668 m 132 636 q 108 526 132 599 q 56 433 82 444 q 50 493 56 453 q 35 419 35 458 q 24 417 31 417 q 6 429 6 417 q 29 563 6 463 q 68 685 53 668 q 81 661 71 676 q 93 685 83 669 l 96 621 q 78 519 96 556 l 81 493 q 115 675 118 613 q 132 636 132 667 m 260 636 l 250 636 l 243 608 l 253 608 l 260 636 m 247 606 l 239 606 l 178 465 l 186 463 l 247 606 m 79 660 l 69 660 l 51 493 l 61 493 l 79 660 z "},"#":{"ha":703,"x_min":0,"x_max":661,"o":"m 618 381 q 605 383 614 381 q 592 386 596 386 q 561 368 579 386 q 536 547 561 426 q 583 482 549 538 q 618 414 618 426 l 618 381 m 475 453 q 444 446 439 446 q 404 528 419 446 q 393 632 393 588 q 475 492 475 517 l 475 453 m 342 464 l 303 464 q 289 497 289 475 q 322 699 289 517 q 342 464 340 628 m 656 268 q 644 218 656 244 q 610 188 631 188 q 571 208 594 188 q 547 244 547 229 q 568 319 547 278 q 592 308 579 308 q 635 350 621 308 l 656 268 m 529 322 q 499 257 529 274 q 422 242 479 246 q 397 338 397 310 q 423 396 397 364 q 475 428 449 428 q 514 385 496 428 q 529 322 529 349 m 239 626 q 199 458 238 549 q 172 440 194 451 q 151 435 160 435 q 148 449 151 439 q 144 464 144 458 q 239 626 144 526 m 379 340 q 347 257 379 289 q 310 242 331 242 q 268 276 286 242 q 253 332 253 306 q 280 399 253 358 q 331 440 307 440 q 367 400 351 440 q 379 340 379 367 m 108 529 q 82 431 82 451 q 89 386 82 408 q 25 406 63 393 q 54 478 44 460 q 108 529 76 521 m 240 267 l 240 261 q 175 229 208 229 q 138 253 156 229 q 121 299 121 278 q 148 367 121 325 q 199 410 175 410 q 240 267 240 410 m 661 43 q 626 -1 661 19 q 565 -22 590 -22 q 528 -15 550 -22 q 492 -7 500 -8 q 318 1 429 1 q 221 -8 286 1 q 124 -17 156 -17 q 63 8 89 -17 q 36 68 36 33 q 163 196 36 151 q 361 229 256 229 q 553 190 471 229 q 661 43 661 139 m 114 244 q 96 196 114 211 q 44 169 86 188 q 0 228 0 206 q 26 331 0 267 q 40 328 31 331 q 54 326 50 326 q 88 350 76 326 q 104 297 92 338 q 114 244 114 265 z "},"$":{"ha":703,"x_min":0,"x_max":661,"o":"m 618 381 q 605 383 614 381 q 592 386 596 386 q 561 368 579 386 q 536 547 561 426 q 583 482 549 538 q 618 414 618 426 l 618 381 m 475 453 q 444 446 439 446 q 404 528 419 446 q 393 632 393 588 q 475 492 475 517 l 475 453 m 342 464 l 303 464 q 289 497 289 475 q 322 699 289 517 q 342 464 340 628 m 656 268 q 644 218 656 244 q 610 188 631 188 q 571 208 594 188 q 547 244 547 229 q 568 319 547 278 q 592 308 579 308 q 635 350 621 308 l 656 268 m 529 322 q 499 257 529 274 q 422 242 479 246 q 397 338 397 310 q 423 396 397 364 q 475 428 449 428 q 514 385 496 428 q 529 322 529 349 m 239 626 q 199 458 238 549 q 172 440 194 451 q 151 435 160 435 q 148 449 151 439 q 144 464 144 458 q 239 626 144 526 m 379 340 q 347 257 379 289 q 310 242 331 242 q 268 276 286 242 q 253 332 253 306 q 280 399 253 358 q 331 440 307 440 q 367 400 351 440 q 379 340 379 367 m 108 529 q 82 431 82 451 q 89 386 82 408 q 25 406 63 393 q 54 478 44 460 q 108 529 76 521 m 240 267 l 240 261 q 175 229 208 229 q 138 253 156 229 q 121 299 121 278 q 148 367 121 325 q 199 410 175 410 q 240 267 240 410 m 661 43 q 626 -1 661 19 q 565 -22 590 -22 q 528 -15 550 -22 q 492 -7 500 -8 q 318 1 429 1 q 221 -8 286 1 q 124 -17 156 -17 q 63 8 89 -17 q 36 68 36 33 q 163 196 36 151 q 361 229 256 229 q 553 190 471 229 q 661 43 661 139 m 114 244 q 96 196 114 211 q 44 169 86 188 q 0 228 0 206 q 26 331 0 267 q 40 328 31 331 q 54 326 50 326 q 88 350 76 326 q 104 297 92 338 q 114 244 114 265 z "},"%":{"ha":703,"x_min":0,"x_max":661,"o":"m 618 381 q 605 383 614 381 q 592 386 596 386 q 561 368 579 386 q 536 547 561 426 q 583 482 549 538 q 618 414 618 426 l 618 381 m 475 453 q 444 446 439 446 q 404 528 419 446 q 393 632 393 588 q 475 492 475 517 l 475 453 m 342 464 l 303 464 q 289 497 289 475 q 322 699 289 517 q 342 464 340 628 m 656 268 q 644 218 656 244 q 610 188 631 188 q 571 208 594 188 q 547 244 547 229 q 568 319 547 278 q 592 308 579 308 q 635 350 621 308 l 656 268 m 529 322 q 499 257 529 274 q 422 242 479 246 q 397 338 397 310 q 423 396 397 364 q 475 428 449 428 q 514 385 496 428 q 529 322 529 349 m 239 626 q 199 458 238 549 q 172 440 194 451 q 151 435 160 435 q 148 449 151 439 q 144 464 144 458 q 239 626 144 526 m 379 340 q 347 257 379 289 q 310 242 331 242 q 268 276 286 242 q 253 332 253 306 q 280 399 253 358 q 331 440 307 440 q 367 400 351 440 q 379 340 379 367 m 108 529 q 82 431 82 451 q 89 386 82 408 q 25 406 63 393 q 54 478 44 460 q 108 529 76 521 m 240 267 l 240 261 q 175 229 208 229 q 138 253 156 229 q 121 299 121 278 q 148 367 121 325 q 199 410 175 410 q 240 267 240 410 m 661 43 q 626 -1 661 19 q 565 -22 590 -22 q 528 -15 550 -22 q 492 -7 500 -8 q 318 1 429 1 q 221 -8 286 1 q 124 -17 156 -17 q 63 8 89 -17 q 36 68 36 33 q 163 196 36 151 q 361 229 256 229 q 553 190 471 229 q 661 43 661 139 m 114 244 q 96 196 114 211 q 44 169 86 188 q 0 228 0 206 q 26 331 0 267 q 40 328 31 331 q 54 326 50 326 q 88 350 76 326 q 104 297 92 338 q 114 244 114 265 z "},"&":{"ha":703,"x_min":0,"x_max":661,"o":"m 618 381 q 605 383 614 381 q 592 386 596 386 q 561 368 579 386 q 536 547 561 426 q 583 482 549 538 q 618 414 618 426 l 618 381 m 475 453 q 444 446 439 446 q 404 528 419 446 q 393 632 393 588 q 475 492 475 517 l 475 453 m 342 464 l 303 464 q 289 497 289 475 q 322 699 289 517 q 342 464 340 628 m 656 268 q 644 218 656 244 q 610 188 631 188 q 571 208 594 188 q 547 244 547 229 q 568 319 547 278 q 592 308 579 308 q 635 350 621 308 l 656 268 m 529 322 q 499 257 529 274 q 422 242 479 246 q 397 338 397 310 q 423 396 397 364 q 475 428 449 428 q 514 385 496 428 q 529 322 529 349 m 239 626 q 199 458 238 549 q 172 440 194 451 q 151 435 160 435 q 148 449 151 439 q 144 464 144 458 q 239 626 144 526 m 379 340 q 347 257 379 289 q 310 242 331 242 q 268 276 286 242 q 253 332 253 306 q 280 399 253 358 q 331 440 307 440 q 367 400 351 440 q 379 340 379 367 m 108 529 q 82 431 82 451 q 89 386 82 408 q 25 406 63 393 q 54 478 44 460 q 108 529 76 521 m 240 267 l 240 261 q 175 229 208 229 q 138 253 156 229 q 121 299 121 278 q 148 367 121 325 q 199 410 175 410 q 240 267 240 410 m 661 43 q 626 -1 661 19 q 565 -22 590 -22 q 528 -15 550 -22 q 492 -7 500 -8 q 318 1 429 1 q 221 -8 286 1 q 124 -17 156 -17 q 63 8 89 -17 q 36 68 36 33 q 163 196 36 151 q 361 229 256 229 q 553 190 471 229 q 661 43 661 139 m 114 244 q 96 196 114 211 q 44 169 86 188 q 0 228 0 206 q 26 331 0 267 q 40 328 31 331 q 54 326 50 326 q 88 350 76 326 q 104 297 92 338 q 114 244 114 265 z "},"'":{"ha":339,"x_min":8,"x_max":314,"o":"m 314 651 q 253 593 272 625 q 314 622 289 618 q 69 414 232 556 l 71 426 q 42 450 74 450 l 15 444 q 12 459 15 450 q 8 474 8 468 q 94 588 8 493 q 206 690 181 682 q 201 674 201 664 q 217 668 201 664 q 153 596 190 633 q 86 528 124 567 q 185 606 119 554 q 275 672 269 672 q 281 660 281 672 q 304 656 281 656 q 314 651 311 656 m 250 589 l 244 597 l 224 582 l 228 574 l 250 589 m 226 571 l 219 579 l 193 558 l 199 550 l 226 571 m 196 547 l 190 554 l 163 535 l 168 526 l 196 547 m 163 522 l 157 531 l 90 475 l 96 467 l 163 522 z "},"(":{"ha":421,"x_min":4,"x_max":450,"o":"m 138 450 q 103 349 126 417 l 83 376 q 138 450 101 400 m 450 -251 q 409 -222 440 -249 q 371 -196 378 -196 q 358 -200 367 -196 q 344 -204 349 -204 q 243 -122 324 -204 q 143 -17 243 -122 q 221 -122 165 -65 q 311 -217 297 -200 q 300 -215 307 -217 q 289 -212 293 -212 q 279 -217 283 -212 q 328 -269 299 -231 q 135 -92 235 -210 q 4 131 25 38 q 69 8 25 68 q 161 -96 96 -26 q 69 53 160 -92 q 8 208 8 151 q 74 451 8 292 q 214 629 146 629 q 228 626 221 629 q 239 622 235 622 q 268 649 242 622 q 301 676 294 676 q 317 660 313 676 q 238 584 279 638 q 181 488 197 531 q 251 554 196 500 q 328 607 299 600 q 189 452 256 565 q 122 256 122 339 q 129 232 122 239 q 225 422 169 329 q 358 558 306 558 l 382 558 q 229 396 314 513 q 138 201 138 269 q 275 -31 138 157 q 450 -228 413 -219 l 450 -251 m 94 299 q 91 242 94 279 q 88 186 88 206 q 57 279 57 272 q 78 357 57 296 q 94 299 94 329 m 333 -165 l 331 -176 l 300 -150 l 303 -139 l 333 -165 z "},")":{"ha":489,"x_min":8,"x_max":454,"o":"m 375 376 l 356 349 q 321 450 344 382 q 375 376 339 425 m 401 279 q 371 186 401 272 q 367 242 371 206 q 364 299 364 279 q 381 357 364 329 q 401 279 401 296 m 8 -228 q 184 -32 47 -219 q 321 201 321 156 q 229 396 321 269 q 76 558 144 513 l 100 558 q 233 422 153 558 q 329 232 289 329 q 336 256 336 239 q 269 452 336 339 q 131 607 203 565 q 207 554 160 600 q 278 488 263 500 q 220 584 261 531 q 142 660 179 638 q 157 676 146 676 q 190 649 164 676 q 219 622 217 622 q 231 626 224 622 q 244 629 238 629 q 385 451 313 629 q 450 208 450 292 q 389 53 450 151 l 297 -96 q 389 8 363 -26 q 454 131 433 68 q 324 -92 433 38 q 131 -269 224 -210 q 179 -217 139 -251 q 169 -212 175 -212 q 158 -215 165 -212 q 147 -217 151 -217 q 238 -122 161 -200 q 315 -17 293 -65 q 215 -122 282 -53 q 114 -204 135 -204 q 101 -200 110 -204 q 88 -196 92 -196 q 49 -222 81 -196 q 8 -251 18 -249 l 8 -228 m 158 -150 l 128 -176 l 125 -165 l 156 -139 l 158 -150 z "},"*":{"ha":703,"x_min":0,"x_max":661,"o":"m 618 381 q 605 383 614 381 q 592 386 596 386 q 561 368 579 386 q 536 547 561 426 q 583 482 549 538 q 618 414 618 426 l 618 381 m 475 453 q 444 446 439 446 q 404 528 419 446 q 393 632 393 588 q 475 492 475 517 l 475 453 m 342 464 l 303 464 q 289 497 289 475 q 322 699 289 517 q 342 464 340 628 m 656 268 q 644 218 656 244 q 610 188 631 188 q 571 208 594 188 q 547 244 547 229 q 568 319 547 278 q 592 308 579 308 q 635 350 621 308 l 656 268 m 529 322 q 499 257 529 274 q 422 242 479 246 q 397 338 397 310 q 423 396 397 364 q 475 428 449 428 q 514 385 496 428 q 529 322 529 349 m 239 626 q 199 458 238 549 q 172 440 194 451 q 151 435 160 435 q 148 449 151 439 q 144 464 144 458 q 239 626 144 526 m 379 340 q 347 257 379 289 q 310 242 331 242 q 268 276 286 242 q 253 332 253 306 q 280 399 253 358 q 331 440 307 440 q 367 400 351 440 q 379 340 379 367 m 108 529 q 82 431 82 451 q 89 386 82 408 q 25 406 63 393 q 54 478 44 460 q 108 529 76 521 m 240 267 l 240 261 q 175 229 208 229 q 138 253 156 229 q 121 299 121 278 q 148 367 121 325 q 199 410 175 410 q 240 267 240 410 m 661 43 q 626 -1 661 19 q 565 -22 590 -22 q 528 -15 550 -22 q 492 -7 500 -8 q 318 1 429 1 q 221 -8 286 1 q 124 -17 156 -17 q 63 8 89 -17 q 36 68 36 33 q 163 196 36 151 q 361 229 256 229 q 553 190 471 229 q 661 43 661 139 m 114 244 q 96 196 114 211 q 44 169 86 188 q 0 228 0 206 q 26 331 0 267 q 40 328 31 331 q 54 326 50 326 q 88 350 76 326 q 104 297 92 338 q 114 244 114 265 z "},"+":{"ha":703,"x_min":0,"x_max":661,"o":"m 618 381 q 605 383 614 381 q 592 386 596 386 q 561 368 579 386 q 536 547 561 426 q 583 482 549 538 q 618 414 618 426 l 618 381 m 475 453 q 444 446 439 446 q 404 528 419 446 q 393 632 393 588 q 475 492 475 517 l 475 453 m 342 464 l 303 464 q 289 497 289 475 q 322 699 289 517 q 342 464 340 628 m 656 268 q 644 218 656 244 q 610 188 631 188 q 571 208 594 188 q 547 244 547 229 q 568 319 547 278 q 592 308 579 308 q 635 350 621 308 l 656 268 m 529 322 q 499 257 529 274 q 422 242 479 246 q 397 338 397 310 q 423 396 397 364 q 475 428 449 428 q 514 385 496 428 q 529 322 529 349 m 239 626 q 199 458 238 549 q 172 440 194 451 q 151 435 160 435 q 148 449 151 439 q 144 464 144 458 q 239 626 144 526 m 379 340 q 347 257 379 289 q 310 242 331 242 q 268 276 286 242 q 253 332 253 306 q 280 399 253 358 q 331 440 307 440 q 367 400 351 440 q 379 340 379 367 m 108 529 q 82 431 82 451 q 89 386 82 408 q 25 406 63 393 q 54 478 44 460 q 108 529 76 521 m 240 267 l 240 261 q 175 229 208 229 q 138 253 156 229 q 121 299 121 278 q 148 367 121 325 q 199 410 175 410 q 240 267 240 410 m 661 43 q 626 -1 661 19 q 565 -22 590 -22 q 528 -15 550 -22 q 492 -7 500 -8 q 318 1 429 1 q 221 -8 286 1 q 124 -17 156 -17 q 63 8 89 -17 q 36 68 36 33 q 163 196 36 151 q 361 229 256 229 q 553 190 471 229 q 661 43 661 139 m 114 244 q 96 196 114 211 q 44 169 86 188 q 0 228 0 206 q 26 331 0 267 q 40 328 31 331 q 54 326 50 326 q 88 350 76 326 q 104 297 92 338 q 114 244 114 265 z "},",":{"ha":263,"x_min":-10,"x_max":236,"o":"m 236 -31 q 158 -137 236 -69 q 40 -204 81 -204 l 15 -204 q -10 -158 6 -175 q 104 -39 61 -100 q 56 5 93 -22 q 8 53 19 32 l 58 53 q 125 18 78 53 q 135 42 135 25 q 101 67 135 67 q 57 61 68 67 q 104 85 81 85 q 134 78 114 85 q 165 71 154 71 q 89 108 139 108 q 33 90 60 108 q 63 116 38 100 q 99 132 88 132 q 189 73 142 132 q 236 -31 236 14 m 208 -42 l 208 -19 l 199 -19 l 199 -42 l 208 -42 m 161 35 l 151 35 l 144 1 l 154 1 l 161 35 m 167 -39 l 158 -36 l 150 -51 l 158 -54 l 167 -39 m 117 7 l 69 26 l 69 17 l 114 -3 l 117 7 m 196 -69 l 189 -65 l 131 -128 l 136 -133 l 196 -69 m 142 -69 l 135 -65 l 49 -158 l 56 -162 l 142 -69 z "},"-":{"ha":447,"x_min":6,"x_max":414,"o":"m 414 214 q 401 199 414 199 q 372 208 392 199 q 342 217 351 217 q 189 186 279 217 q 121 164 124 164 l 89 164 q 294 229 211 226 l 306 244 l 301 247 q 47 176 236 240 q 365 281 167 240 q 344 289 360 289 q 179 253 301 289 l 6 201 q 65 243 43 224 q 139 288 71 271 q 233 311 171 294 l 228 314 q 143 300 197 314 q 58 285 85 286 q 181 323 99 303 q 303 343 263 343 l 388 343 q 393 317 390 329 q 407 293 396 304 q 371 261 397 278 q 379 244 379 253 q 376 239 379 242 q 413 221 393 235 l 414 214 m 178 269 l 178 279 l 96 254 l 96 246 l 178 269 z "},".":{"ha":263,"x_min":7,"x_max":217,"o":"m 217 89 q 160 10 207 64 q 92 -72 101 -57 q 8 -35 58 -56 l 7 -28 q 58 58 7 3 q 139 131 97 101 q 82 64 131 117 q 36 -7 43 22 q 157 119 76 35 q 169 96 161 111 q 196 106 181 106 q 160 40 183 83 q 217 89 178 58 m 169 92 l 161 97 l 68 -8 l 76 -14 l 169 92 m 133 14 l 125 18 l 110 -3 l 118 -8 l 133 14 m 72 -17 l 64 -11 l 44 -39 l 53 -44 l 72 -17 z "},"/":{"ha":496,"x_min":-1,"x_max":504,"o":"m 504 664 q 358 385 429 569 q 238 60 318 276 q 115 -162 172 -110 q 358 443 231 43 q 321 371 346 424 q 131 -104 269 239 q 60 -224 106 -144 l 397 586 q 335 497 375 558 q 196 193 288 408 q 86 -103 92 -50 q 33 -167 69 -125 q 42 -119 38 -151 q 15 -131 32 -131 q -1 -122 3 -131 q 128 131 44 -37 l 307 594 q 363 683 326 626 q 306 535 357 668 q 355 616 321 561 q 414 671 389 671 l 414 636 q 465 683 457 683 q 471 682 468 683 q 504 664 503 682 m 422 563 l 414 569 l 389 518 l 396 511 l 422 563 m 386 617 l 378 624 l 328 539 l 335 532 l 386 617 m 246 331 l 238 338 l 211 286 l 219 279 l 246 331 m 207 243 l 199 250 l 176 207 l 185 200 l 207 243 m 129 79 l 121 86 l 104 39 l 111 32 l 129 79 m 101 26 l 94 32 l 42 -96 l 49 -101 l 101 26 z "},":":{"ha":228,"x_min":4,"x_max":194,"o":"m 194 390 q 149 290 194 347 q 60 218 103 232 l 26 226 q 82 253 64 239 l 82 260 q 63 279 82 269 q 113 363 82 306 q 56 279 56 318 q 47 285 54 279 q 33 290 40 290 q 19 285 26 290 q 10 279 11 279 q 128 426 29 368 q 89 372 114 410 q 132 394 106 378 l 174 421 q 128 367 156 404 q 152 382 133 368 q 182 396 171 396 q 194 390 190 396 m 183 107 q 140 44 183 88 q 78 1 97 1 q 43 -4 54 1 q 97 53 46 7 q 149 128 149 100 q 89 74 135 119 q 29 32 49 33 q 4 39 17 38 q 51 129 4 71 q 129 188 99 188 q 176 174 161 188 l 153 131 l 158 129 q 175 139 167 129 q 179 124 175 135 q 183 107 183 113 m 161 340 l 153 344 l 103 276 l 111 271 l 161 340 m 142 147 l 136 153 l 115 132 l 121 126 l 142 147 m 118 124 l 113 129 l 25 43 l 31 36 l 118 124 z "},";":{"ha":347,"x_min":8,"x_max":321,"o":"m 236 328 q 150 264 171 282 q 85 182 106 226 q 232 301 174 261 l 83 153 q 76 182 82 163 q 67 165 67 174 q 35 186 63 168 q 8 213 8 204 q 79 297 8 242 q 182 351 150 351 q 211 340 193 351 q 236 328 229 329 m 321 14 q 243 -80 321 -18 q 131 -142 165 -142 q 28 -178 117 -147 q 118 -93 65 -142 q 206 24 206 -12 q 175 53 206 32 q 135 75 144 75 q 121 69 128 75 l 114 64 q 107 65 110 64 q 135 119 111 96 q 128 121 132 121 q 96 111 122 121 q 133 154 100 132 q 188 176 165 176 q 272 113 222 176 q 321 14 321 50 m 183 310 l 178 317 l 79 224 l 83 217 l 183 310 m 296 17 q 250 90 281 54 q 182 139 213 136 q 274 3 281 65 q 296 17 285 6 m 76 250 l 68 256 l 36 217 l 43 211 l 76 250 m 218 78 q 167 117 179 117 q 140 94 161 117 q 211 51 157 86 q 218 78 211 69 m 226 7 l 218 7 l 199 -31 l 207 -35 l 226 7 m 274 -12 l 268 -4 l 129 -124 l 135 -132 l 274 -12 z "},"<":{"ha":421,"x_min":4,"x_max":450,"o":"m 138 450 q 103 349 126 417 l 83 376 q 138 450 101 400 m 450 -251 q 409 -222 440 -249 q 371 -196 378 -196 q 358 -200 367 -196 q 344 -204 349 -204 q 243 -122 324 -204 q 143 -17 243 -122 q 221 -122 165 -65 q 311 -217 297 -200 q 300 -215 307 -217 q 289 -212 293 -212 q 279 -217 283 -212 q 328 -269 299 -231 q 135 -92 235 -210 q 4 131 25 38 q 69 8 25 68 q 161 -96 96 -26 q 69 53 160 -92 q 8 208 8 151 q 74 451 8 292 q 214 629 146 629 q 228 626 221 629 q 239 622 235 622 q 268 649 242 622 q 301 676 294 676 q 317 660 313 676 q 238 584 279 638 q 181 488 197 531 q 251 554 196 500 q 328 607 299 600 q 189 452 256 565 q 122 256 122 339 q 129 232 122 239 q 225 422 169 329 q 358 558 306 558 l 382 558 q 229 396 314 513 q 138 201 138 269 q 275 -31 138 157 q 450 -228 413 -219 l 450 -251 m 94 299 q 91 242 94 279 q 88 186 88 206 q 57 279 57 272 q 78 357 57 296 q 94 299 94 329 m 333 -165 l 331 -176 l 300 -150 l 303 -139 l 333 -165 z "},"=":{"ha":703,"x_min":0,"x_max":661,"o":"m 618 381 q 605 383 614 381 q 592 386 596 386 q 561 368 579 386 q 536 547 561 426 q 583 482 549 538 q 618 414 618 426 l 618 381 m 475 453 q 444 446 439 446 q 404 528 419 446 q 393 632 393 588 q 475 492 475 517 l 475 453 m 342 464 l 303 464 q 289 497 289 475 q 322 699 289 517 q 342 464 340 628 m 656 268 q 644 218 656 244 q 610 188 631 188 q 571 208 594 188 q 547 244 547 229 q 568 319 547 278 q 592 308 579 308 q 635 350 621 308 l 656 268 m 529 322 q 499 257 529 274 q 422 242 479 246 q 397 338 397 310 q 423 396 397 364 q 475 428 449 428 q 514 385 496 428 q 529 322 529 349 m 239 626 q 199 458 238 549 q 172 440 194 451 q 151 435 160 435 q 148 449 151 439 q 144 464 144 458 q 239 626 144 526 m 379 340 q 347 257 379 289 q 310 242 331 242 q 268 276 286 242 q 253 332 253 306 q 280 399 253 358 q 331 440 307 440 q 367 400 351 440 q 379 340 379 367 m 108 529 q 82 431 82 451 q 89 386 82 408 q 25 406 63 393 q 54 478 44 460 q 108 529 76 521 m 240 267 l 240 261 q 175 229 208 229 q 138 253 156 229 q 121 299 121 278 q 148 367 121 325 q 199 410 175 410 q 240 267 240 410 m 661 43 q 626 -1 661 19 q 565 -22 590 -22 q 528 -15 550 -22 q 492 -7 500 -8 q 318 1 429 1 q 221 -8 286 1 q 124 -17 156 -17 q 63 8 89 -17 q 36 68 36 33 q 163 196 36 151 q 361 229 256 229 q 553 190 471 229 q 661 43 661 139 m 114 244 q 96 196 114 211 q 44 169 86 188 q 0 228 0 206 q 26 331 0 267 q 40 328 31 331 q 54 326 50 326 q 88 350 76 326 q 104 297 92 338 q 114 244 114 265 z "},">":{"ha":489,"x_min":8,"x_max":454,"o":"m 375 376 l 356 349 q 321 450 344 382 q 375 376 339 425 m 401 279 q 371 186 401 272 q 367 242 371 206 q 364 299 364 279 q 381 357 364 329 q 401 279 401 296 m 8 -228 q 184 -32 47 -219 q 321 201 321 156 q 229 396 321 269 q 76 558 144 513 l 100 558 q 233 422 153 558 q 329 232 289 329 q 336 256 336 239 q 269 452 336 339 q 131 607 203 565 q 207 554 160 600 q 278 488 263 500 q 220 584 261 531 q 142 660 179 638 q 157 676 146 676 q 190 649 164 676 q 219 622 217 622 q 231 626 224 622 q 244 629 238 629 q 385 451 313 629 q 450 208 450 292 q 389 53 450 151 l 297 -96 q 389 8 363 -26 q 454 131 433 68 q 324 -92 433 38 q 131 -269 224 -210 q 179 -217 139 -251 q 169 -212 175 -212 q 158 -215 165 -212 q 147 -217 151 -217 q 238 -122 161 -200 q 315 -17 293 -65 q 215 -122 282 -53 q 114 -204 135 -204 q 101 -200 110 -204 q 88 -196 92 -196 q 49 -222 81 -196 q 8 -251 18 -249 l 8 -228 m 158 -150 l 128 -176 l 125 -165 l 156 -139 l 158 -150 z "},"?":{"ha":451,"x_min":0,"x_max":432,"o":"m 432 476 q 408 464 419 465 q 417 503 417 483 q 319 622 417 571 q 158 667 235 667 q 115 665 144 667 q 72 663 86 663 q 153 685 115 685 q 329 638 240 685 q 432 501 432 583 l 432 476 m 390 486 q 367 456 390 479 q 338 422 340 428 q 279 319 313 371 q 176 230 257 286 q 60 174 94 174 q 38 183 53 174 q 11 201 24 193 l 21 201 q 103 228 56 201 q 172 283 151 254 q 94 243 107 249 q 11 215 47 222 q 122 276 61 229 q 211 367 178 319 q 117 301 200 361 q 18 247 56 257 q 161 350 67 281 q 269 483 246 413 q 100 535 254 504 q 61 479 82 524 q 26 426 40 435 q 0 535 0 464 q 28 631 0 561 q 22 575 25 613 q 49 601 29 578 q 86 625 69 624 q 171 631 136 631 q 299 578 213 631 q 390 486 390 524 m 228 86 q 135 25 192 72 q 56 -54 85 -17 q 54 -46 54 -50 q 67 -21 54 -37 q 81 6 81 -4 l 79 13 q 36 -42 53 -12 q 18 3 18 -18 q 85 90 18 39 q 190 142 151 142 q 201 128 201 142 q 197 117 201 121 q 228 86 217 108 m 253 67 l 69 -93 l 64 -85 l 247 74 l 253 67 m 368 493 l 311 553 l 304 549 l 361 489 l 368 493 m 347 464 l 339 469 l 328 454 l 336 449 l 347 464 m 275 539 q 164 600 244 596 q 138 574 151 575 q 275 539 203 564 m 143 599 q 65 585 106 599 q 84 581 72 585 q 101 576 96 576 q 124 585 111 576 q 143 599 136 593 m 301 447 l 293 450 l 240 364 l 249 360 l 301 447 m 71 539 q 36 522 36 531 l 36 486 q 71 539 51 500 m 26 517 l 26 569 l 15 569 l 15 517 l 26 517 m 133 49 l 128 56 l 82 18 l 88 10 l 133 49 m 97 56 l 90 61 l 53 22 l 58 17 l 97 56 z "},"@":{"ha":703,"x_min":0,"x_max":661,"o":"m 618 381 q 605 383 614 381 q 592 386 596 386 q 561 368 579 386 q 536 547 561 426 q 583 482 549 538 q 618 414 618 426 l 618 381 m 475 453 q 444 446 439 446 q 404 528 419 446 q 393 632 393 588 q 475 492 475 517 l 475 453 m 342 464 l 303 464 q 289 497 289 475 q 322 699 289 517 q 342 464 340 628 m 656 268 q 644 218 656 244 q 610 188 631 188 q 571 208 594 188 q 547 244 547 229 q 568 319 547 278 q 592 308 579 308 q 635 350 621 308 l 656 268 m 529 322 q 499 257 529 274 q 422 242 479 246 q 397 338 397 310 q 423 396 397 364 q 475 428 449 428 q 514 385 496 428 q 529 322 529 349 m 239 626 q 199 458 238 549 q 172 440 194 451 q 151 435 160 435 q 148 449 151 439 q 144 464 144 458 q 239 626 144 526 m 379 340 q 347 257 379 289 q 310 242 331 242 q 268 276 286 242 q 253 332 253 306 q 280 399 253 358 q 331 440 307 440 q 367 400 351 440 q 379 340 379 367 m 108 529 q 82 431 82 451 q 89 386 82 408 q 25 406 63 393 q 54 478 44 460 q 108 529 76 521 m 240 267 l 240 261 q 175 229 208 229 q 138 253 156 229 q 121 299 121 278 q 148 367 121 325 q 199 410 175 410 q 240 267 240 410 m 661 43 q 626 -1 661 19 q 565 -22 590 -22 q 528 -15 550 -22 q 492 -7 500 -8 q 318 1 429 1 q 221 -8 286 1 q 124 -17 156 -17 q 63 8 89 -17 q 36 68 36 33 q 163 196 36 151 q 361 229 256 229 q 553 190 471 229 q 661 43 661 139 m 114 244 q 96 196 114 211 q 44 169 86 188 q 0 228 0 206 q 26 331 0 267 q 40 328 31 331 q 54 326 50 326 q 88 350 76 326 q 104 297 92 338 q 114 244 114 265 z "},"A":{"ha":628,"x_min":3,"x_max":603,"o":"m 603 314 q 569 287 601 296 q 538 264 538 278 l 538 257 l 579 -64 l 544 -64 q 529 7 542 -44 q 525 -18 525 -4 q 531 -64 525 -36 q 486 78 500 -51 q 472 243 486 82 l 474 244 q 465 247 472 247 q 436 224 436 247 q 453 97 436 182 q 469 -32 469 11 q 468 -64 469 -43 q 454 78 472 -7 l 424 219 l 414 229 q 293 172 378 207 q 182 113 215 140 q 115 -4 131 69 q 107 38 114 10 l 108 36 q 96 32 108 31 l 90 35 l 90 38 q 74 44 90 38 q 57 72 57 51 q 118 265 57 160 q 244 447 144 311 q 354 625 325 557 q 446 681 372 631 q 510 372 469 578 q 543 361 521 360 q 539 340 543 354 q 535 318 535 325 q 538 307 535 314 q 549 306 543 306 q 576 314 563 306 l 603 314 m 133 368 q 64 197 110 311 q 32 21 25 94 q 3 47 3 29 q 57 206 3 75 q 133 368 111 336 m 424 626 l 421 635 l 407 626 l 407 618 l 424 626 m 401 610 l 393 615 l 379 594 l 388 589 l 401 610 m 497 357 l 461 529 l 453 529 l 489 357 l 497 357 m 453 339 l 453 365 q 410 518 453 400 q 382 464 382 478 q 413 326 382 436 q 453 339 426 332 m 460 307 l 457 317 l 424 296 l 426 288 l 460 307 m 324 406 l 315 411 l 301 390 l 310 385 l 324 406 m 546 50 l 521 253 l 513 253 l 536 50 l 546 50 m 393 315 q 367 440 385 357 q 257 249 331 376 l 393 315 m 318 467 l 310 471 l 185 269 l 193 265 l 318 467 m 551 8 l 551 43 l 542 43 l 542 8 l 551 8 m 306 376 l 297 382 l 193 228 l 201 222 l 306 376 m 269 443 l 261 446 l 103 185 l 111 181 l 269 443 m 186 265 l 176 265 l 146 197 l 154 193 l 186 265 z "},"B":{"ha":564,"x_min":10,"x_max":538,"o":"m 538 161 q 534 133 538 151 q 531 104 531 114 q 511 115 521 106 q 357 1 454 60 q 183 -64 247 -64 l 178 -64 q 460 96 313 -19 l 461 104 q 451 110 461 108 q 124 -35 249 -35 q 92 -26 115 -35 q 58 -17 69 -17 q 44 74 44 29 q 48 124 44 90 q 51 174 51 157 l 51 388 q 31 506 51 428 q 10 625 10 585 q 256 681 181 681 q 398 647 325 681 q 519 563 471 614 q 460 447 489 506 q 369 353 428 399 q 479 264 407 325 q 524 215 506 240 l 538 161 m 436 585 l 394 597 l 394 589 l 433 576 l 436 585 m 478 529 l 475 538 l 461 531 l 461 522 l 478 529 m 429 610 q 307 654 351 654 l 274 654 q 392 596 343 629 q 390 607 390 608 q 400 614 390 614 q 415 612 406 614 q 429 610 425 610 m 450 490 l 442 494 l 428 474 l 436 468 l 450 490 m 436 515 l 432 522 l 381 475 l 385 468 l 436 515 m 231 636 l 231 646 l 190 646 l 190 636 l 231 636 m 375 579 q 214 619 286 619 q 100 604 181 619 q 240 601 147 604 q 375 579 326 599 m 431 428 l 425 436 l 326 361 l 332 353 l 431 428 m 400 546 q 303 572 376 560 q 199 583 238 583 q 161 581 185 583 l 124 576 q 161 338 154 444 q 400 546 368 446 m 389 458 l 383 467 l 210 344 l 214 335 l 389 458 m 471 239 q 424 298 472 264 q 349 332 375 332 q 304 304 342 332 q 471 239 360 282 m 308 329 l 308 340 l 275 333 l 275 324 l 308 329 m 132 326 l 119 517 l 108 517 l 121 326 l 132 326 m 442 185 q 350 242 421 211 q 243 272 279 272 q 165 250 231 269 q 421 157 253 224 l 442 185 m 401 104 l 396 111 l 375 97 l 379 89 l 401 104 m 82 394 q 49 557 82 433 q 72 289 57 468 l 82 394 m 107 339 l 107 385 l 97 385 l 97 339 l 107 339 m 376 85 l 372 93 l 329 68 l 329 60 l 376 85 m 107 303 l 107 331 l 97 331 l 97 303 l 107 303 m 400 143 q 167 224 329 183 q 154 14 154 90 q 286 65 211 26 q 400 143 361 103 m 143 258 l 128 274 l 122 267 l 138 251 l 143 258 m 322 56 l 318 64 l 233 19 l 233 11 l 322 56 m 143 232 l 133 232 l 126 57 l 138 57 l 143 232 m 107 3 l 107 276 l 97 276 l 97 3 l 107 3 m 78 21 l 78 276 l 67 276 l 67 21 l 78 21 m 218 6 l 218 15 l 185 10 l 185 -1 l 218 6 z "},"C":{"ha":471,"x_min":-1,"x_max":492,"o":"m 363 608 l 329 589 l 326 597 l 360 617 l 363 608 m 492 657 q 298 508 450 651 q 146 326 146 364 q 254 171 146 271 q 417 51 349 83 l 390 51 q 247 150 335 51 q 136 303 185 219 q 128 285 128 297 q 210 125 128 214 q 357 14 283 43 q 272 53 321 18 q 193 106 207 99 q 258 29 213 69 q 344 -28 304 -11 q 326 -40 339 -40 q 290 -19 318 -40 q 257 1 261 1 q 244 -1 253 1 q 231 -4 236 -4 q 78 128 160 -4 q 1 321 1 250 q 72 442 1 361 q 171 556 165 547 q 74 479 93 497 q -1 381 22 433 q 151 558 22 456 q 356 689 264 647 q 303 647 347 675 q 313 646 307 646 q 325 647 317 646 q 338 649 333 649 q 239 578 324 636 q 151 493 178 535 q 264 576 189 521 q 375 639 350 639 q 389 636 379 639 q 404 633 399 633 q 447 653 413 633 q 492 675 481 674 l 492 657 m 99 251 q 79 207 99 228 q 56 267 56 253 q 90 339 56 271 q 94 295 90 324 q 99 251 99 267 m 144 135 q 86 192 125 153 l 107 213 q 144 135 119 186 z "},"D":{"ha":554,"x_min":47,"x_max":529,"o":"m 529 424 q 517 365 529 401 q 493 313 506 329 q 517 296 497 304 q 424 143 499 232 q 285 46 340 46 q 276 49 281 46 q 267 51 272 51 q 208 21 258 51 q 139 -8 158 -10 q 163 24 139 11 q 143 19 154 24 q 129 15 132 15 q 114 24 124 15 q 99 33 104 33 q 79 28 106 33 q 96 56 81 39 q 86 67 99 64 q 67 103 65 83 l 90 346 q 79 414 90 347 q 67 542 78 457 q 56 572 65 546 q 49 604 49 592 q 47 617 49 608 l 47 629 q 63 676 47 654 q 75 643 65 674 q 124 621 82 621 q 126 625 126 622 q 90 643 115 633 l 96 642 q 127 665 108 642 q 153 688 146 688 q 361 581 200 688 q 529 424 529 469 m 486 429 q 421 499 486 460 q 325 542 367 531 q 390 476 349 519 q 431 431 410 454 q 479 400 453 408 q 486 429 486 433 m 151 647 l 144 664 l 136 661 l 143 647 l 151 647 m 347 469 l 347 478 l 196 558 l 192 549 l 347 469 m 110 568 l 110 590 l 100 590 l 100 568 l 110 568 m 182 472 l 176 543 l 165 543 l 172 472 l 182 472 m 450 349 q 340 446 450 374 q 200 525 246 508 l 200 124 q 343 224 242 136 q 450 349 450 315 m 99 479 l 99 518 l 88 518 l 88 479 l 99 479 m 168 351 q 140 543 168 406 q 144 389 140 492 q 149 235 149 286 q 142 132 149 174 q 168 351 168 299 m 428 178 l 422 186 l 296 75 l 301 67 l 428 178 m 461 308 q 326 178 419 263 q 189 75 213 75 q 139 106 171 75 l 139 69 q 151 61 151 71 q 144 47 151 56 q 324 153 229 75 q 461 308 418 231 m 128 178 l 122 411 l 111 411 l 118 178 l 128 178 m 189 267 l 178 267 l 165 128 l 176 128 l 189 267 m 258 69 l 256 78 l 169 33 l 169 25 l 258 69 m 104 94 l 104 218 l 93 218 l 93 94 l 104 94 z "},"E":{"ha":501,"x_min":-11,"x_max":499,"o":"m 499 654 q 425 614 443 614 q 411 617 421 614 q 397 619 401 619 q 103 525 325 619 l 103 519 q 107 511 101 515 q 276 569 164 531 q 451 600 374 601 q 372 557 410 565 q 96 472 206 522 l 96 442 q 107 322 96 374 q 335 392 182 347 l 365 385 q 368 378 368 382 q 356 358 368 365 q 385 343 365 354 q 268 313 313 325 q 157 267 196 292 q 274 299 174 269 q 374 325 364 325 q 397 310 385 325 q 238 269 344 296 q 97 207 131 242 l 97 71 q 106 67 101 67 q 374 133 111 67 q 397 115 392 115 q 414 121 403 115 q 431 126 425 126 l 475 126 q 439 92 460 92 q 428 97 433 92 q 418 103 424 103 q 260 47 390 103 q 103 -28 136 -6 q 276 35 136 -21 q 446 79 390 79 q 481 65 456 79 q 467 43 482 43 q 457 49 461 43 q 447 56 453 56 l 425 56 q 424 49 424 53 q 425 40 424 46 q 426 32 426 35 q 418 31 424 31 q 401 34 413 31 q 385 38 390 38 q 199 -35 358 38 l 183 -24 q 63 -61 143 -44 q 97 -32 63 -54 q 89 -31 93 -31 q 57 -40 78 -31 q 21 38 46 -24 q -4 26 10 26 q -11 169 -11 78 q 61 632 -11 571 q 71 596 64 619 q 229 635 175 624 q 376 668 289 647 q 383 649 378 665 q 394 638 388 638 q 424 646 404 638 q 456 654 444 654 l 499 654 m 374 636 l 329 636 q 211 618 276 636 q 115 560 131 596 l 143 560 q 374 636 253 611 m 75 576 l 65 576 l 53 531 l 63 531 l 75 576 m 314 353 l 286 361 q 190 326 253 350 q 104 272 126 303 q 314 353 146 292 m 78 296 q 69 464 78 397 q 56 290 69 431 l 78 296 m 44 206 l 44 450 l 35 450 l 35 206 l 44 206 m 81 267 l 74 272 l 53 246 l 61 240 l 81 267 m 338 101 q 214 78 290 103 q 92 36 214 78 l 92 -4 l 338 101 m 78 56 l 78 211 q 57 142 58 196 q 50 63 56 76 q 78 56 58 60 m 39 186 l 29 186 l 22 128 l 33 128 l 39 186 m 75 1 l 68 25 l 58 22 l 65 1 l 75 1 z "},"F":{"ha":469,"x_min":8,"x_max":482,"o":"m 482 624 q 461 600 482 600 q 448 603 457 600 q 435 606 439 606 q 413 597 428 606 q 389 588 397 588 q 370 590 383 588 q 350 593 357 593 q 250 578 304 593 q 151 547 218 568 l 151 526 l 353 575 l 428 575 q 406 557 421 558 l 375 557 q 247 531 346 557 q 147 494 149 504 q 135 375 144 461 q 139 371 138 371 q 208 389 163 371 q 276 407 254 407 l 356 407 l 356 378 q 290 389 304 389 q 208 369 267 389 q 133 333 150 349 q 218 358 146 336 q 293 378 282 378 q 331 364 318 378 q 357 328 343 346 q 310 329 369 329 q 243 314 271 329 q 268 308 253 308 q 288 311 278 308 q 294 288 294 303 q 286 289 293 289 q 185 269 239 289 q 117 206 117 244 q 139 29 117 136 q 110 121 117 47 q 101 228 108 131 q 92 121 92 158 q 104 18 92 68 q 78 42 100 18 q 22 -10 58 25 q 30 17 22 -1 q 38 46 38 36 q 29 60 38 56 q 8 47 19 49 l 8 461 q 20 556 8 485 q 40 647 32 628 q 58 636 47 644 q 78 683 63 651 l 90 617 q 224 648 128 631 q 360 665 319 665 l 404 665 q 368 636 386 636 q 353 639 363 636 q 339 642 344 642 q 146 606 236 642 l 153 606 q 229 617 179 606 q 306 629 279 629 q 394 626 335 629 q 482 624 453 624 m 283 599 l 283 607 l 165 583 l 165 574 l 283 599 m 140 606 l 138 614 l 86 582 l 89 574 l 140 606 m 128 556 l 128 565 l 106 565 l 106 556 l 128 556 m 129 533 l 125 542 l 106 535 l 106 525 l 129 533 m 64 575 l 54 575 l 47 529 l 58 529 l 64 575 m 296 351 l 272 351 q 138 301 264 351 q 296 351 222 331 m 125 490 l 114 490 l 104 360 l 115 360 l 125 490 m 89 349 l 89 478 l 78 478 l 78 349 l 89 349 m 201 293 l 197 301 l 183 294 l 183 285 l 201 293 m 171 281 l 168 289 l 142 276 l 142 267 l 171 281 m 68 113 q 54 510 68 175 q 32 303 32 431 q 40 172 32 256 l 53 42 q 68 113 68 101 z "},"G":{"ha":508,"x_min":11,"x_max":464,"o":"m 464 139 q 426 14 464 107 q 400 32 410 13 q 369 -29 390 11 q 358 -11 369 -21 q 332 -28 346 -28 q 308 3 329 -14 q 274 19 288 19 q 260 17 269 19 q 247 14 251 14 q 51 196 182 14 q 14 249 42 211 q 11 263 11 254 q 44 358 11 278 q 43 367 43 361 q 160 547 43 414 q 324 681 278 681 l 365 681 l 379 658 q 206 515 293 601 q 67 340 106 417 l 71 314 q 382 638 214 506 l 428 631 q 378 590 404 593 q 144 293 144 389 q 224 182 144 247 q 340 92 244 165 q 356 146 356 108 q 339 269 353 163 q 236 224 313 261 l 247 250 q 242 251 246 251 q 230 250 238 251 q 218 249 222 249 q 219 257 219 253 q 215 274 219 263 q 211 290 211 285 q 266 348 211 310 q 343 386 321 386 q 358 383 349 386 q 374 379 368 379 q 388 388 382 379 q 396 397 394 396 q 435 340 415 365 q 464 139 464 303 m 303 213 l 282 192 l 276 199 l 296 219 l 303 213 m 265 608 l 261 615 l 186 547 l 190 540 l 265 608 m 406 335 l 392 364 l 383 364 l 397 331 l 406 335 m 356 358 l 333 368 q 278 328 315 354 q 356 358 325 351 m 335 313 l 332 322 l 278 303 l 278 293 l 335 313 m 446 179 q 433 237 446 196 q 411 289 421 278 q 433 172 433 219 q 429 111 433 144 q 421 50 426 89 q 446 179 446 164 m 382 81 l 382 258 l 371 258 l 371 81 l 382 81 m 69 396 l 61 399 l 53 383 l 61 379 l 69 396 m 168 403 q 79 285 121 346 q 90 286 86 286 q 110 263 99 286 q 126 231 124 232 q 117 271 117 247 q 168 403 117 329 m 339 61 l 288 106 l 282 97 l 333 53 l 339 61 m 344 19 l 321 28 l 321 18 l 340 11 l 344 19 m 194 163 l 161 194 l 156 189 l 188 156 l 194 163 m 67 313 q 32 267 38 292 q 54 272 39 272 q 67 313 54 289 m 81 276 l 72 276 l 65 257 l 74 253 l 81 276 m 189 125 l 85 236 l 78 232 l 182 121 l 189 125 z "},"H":{"ha":549,"x_min":3,"x_max":519,"o":"m 519 585 q 472 165 472 400 l 472 8 q 480 -15 472 0 q 489 -36 488 -29 q 450 6 472 -32 q 421 -31 436 -6 q 351 201 351 63 q 358 278 351 240 q 353 282 354 282 l 343 282 q 243 260 324 282 q 143 226 168 238 q 125 213 125 218 q 130 144 125 189 q 135 75 135 99 l 135 -18 q 101 74 106 74 q 92 54 96 68 q 65 129 65 78 q 58 210 67 193 q 46 114 46 135 q 63 38 46 68 q 31 85 36 39 q 25 153 29 107 l 11 214 q 3 276 3 251 q 31 482 3 322 q 76 683 60 642 q 108 660 89 675 q 74 400 92 556 q 63 278 63 300 q 68 269 63 274 q 110 524 68 272 q 154 631 122 600 q 158 590 158 614 q 149 466 158 549 q 140 342 140 383 q 371 396 250 392 q 386 529 379 432 q 408 660 392 617 q 421 613 411 644 q 463 654 436 625 l 478 631 l 456 478 q 439 313 439 365 q 440 282 439 294 q 476 459 464 338 q 511 636 488 581 l 519 585 m 442 501 q 433 576 442 522 q 413 410 429 519 q 435 415 419 413 q 438 458 435 429 q 442 501 442 488 m 450 269 l 440 269 l 433 235 l 443 235 l 450 269 m 438 233 l 428 233 l 421 193 l 432 193 l 438 233 m 421 381 q 393 256 418 371 q 376 129 376 179 q 383 103 376 119 q 390 78 390 86 q 421 381 421 328 m 461 215 l 453 215 l 438 67 l 446 67 l 461 215 m 346 353 l 304 353 q 213 331 261 353 q 136 303 156 306 l 346 353 m 138 528 l 128 528 l 100 338 l 110 338 l 138 528 m 363 317 l 363 326 l 131 260 l 131 250 l 363 317 m 72 594 q 42 438 68 560 q 21 279 21 339 q 31 204 21 242 l 72 594 m 114 311 l 104 311 l 97 283 l 107 283 l 114 311 m 108 254 l 100 260 l 85 239 l 93 232 l 108 254 m 72 244 l 61 244 l 54 217 l 65 217 l 72 244 m 97 83 l 97 210 q 82 138 82 164 q 97 83 82 108 z "},"I":{"ha":232,"x_min":3,"x_max":200,"o":"m 200 561 q 169 324 200 481 q 138 86 138 167 q 153 -22 138 28 q 144 -25 150 -25 q 103 -7 117 -25 q 82 36 100 -1 q 65 18 79 35 q 36 74 40 29 q 29 143 35 97 q 11 35 24 107 l 3 111 q 57 447 24 226 l 57 647 l 63 647 q 96 624 86 647 q 111 654 100 635 q 128 593 115 633 q 92 381 111 565 q 75 150 75 219 q 89 71 75 156 l 161 672 l 171 572 q 165 514 171 542 q 154 457 154 457 l 121 225 l 121 168 q 185 613 194 446 q 200 561 200 581 m 94 611 l 85 611 l 72 517 l 82 517 l 94 611 m 89 508 l 78 508 l 72 475 l 82 475 l 89 508 m 76 349 l 76 383 l 65 383 l 65 349 l 76 349 m 71 282 l 71 322 l 60 322 l 60 282 l 71 282 m 125 72 l 125 113 l 114 113 l 114 72 l 125 72 m 64 60 l 58 131 l 47 131 l 54 60 l 64 60 z "},"J":{"ha":404,"x_min":19,"x_max":367,"o":"m 367 482 q 364 404 367 456 q 361 326 361 353 q 367 297 361 301 q 274 -37 303 -37 q 263 -34 268 -37 q 251 -31 257 -31 q 237 -43 246 -31 q 222 -56 228 -56 l 189 -56 q 81 9 143 -56 q 19 119 19 74 l 19 156 q 100 28 42 54 q 79 78 99 43 q 60 167 60 113 q 69 215 60 190 q 101 243 82 247 q 96 222 96 235 q 132 135 96 183 q 206 82 168 88 q 228 482 228 299 l 228 644 q 257 671 228 658 q 268 611 257 651 q 303 636 296 632 q 342 653 326 651 q 356 568 343 631 q 367 482 367 511 m 303 439 l 296 581 l 286 581 l 292 439 l 303 439 m 342 368 q 321 497 342 421 q 322 438 322 467 q 290 99 322 372 q 342 368 342 264 m 276 365 q 272 425 276 385 q 267 485 267 465 l 231 76 q 276 365 276 264 m 267 94 l 257 94 l 250 67 l 260 67 l 267 94 m 258 26 l 258 36 l 229 43 l 229 33 l 258 26 m 97 132 l 85 190 l 76 190 l 89 132 l 97 132 m 211 50 l 147 85 l 143 76 l 207 42 l 211 50 m 263 -15 l 263 -4 l 229 -4 l 229 -15 l 263 -15 m 211 11 l 169 31 l 169 22 l 207 3 l 211 11 z "},"K":{"ha":528,"x_min":1,"x_max":536,"o":"m 213 556 l 179 529 l 174 538 l 207 564 l 213 556 m 536 -26 l 510 -26 q 482 -10 504 -26 l 467 -21 q 347 135 419 26 q 229 289 274 243 q 350 99 251 254 q 496 -74 422 -14 q 368 47 443 -49 q 253 193 269 175 q 433 -68 328 72 q 268 103 357 -18 q 119 292 158 251 l 82 -64 q 79 -1 79 -36 q 90 157 79 54 l 97 222 l 94 321 q 67 -26 67 172 q 44 -32 58 -32 q 42 27 44 -12 q 40 86 40 67 q 28 56 35 71 q 1 39 21 40 l 1 113 q 7 161 1 126 q 13 211 11 183 q 19 408 19 306 l 19 575 q 8 663 19 583 l 42 663 q 65 615 53 653 q 76 635 76 624 q 72 651 76 640 q 67 667 67 661 q 83 688 67 678 q 90 644 90 671 q 83 564 90 618 q 76 483 76 510 q 83 429 76 454 q 101 494 100 460 l 101 564 q 138 639 101 617 q 135 601 138 626 q 133 564 133 576 q 146 519 133 519 q 168 531 160 519 q 142 478 156 514 q 265 568 176 497 q 396 646 344 631 q 401 615 397 635 q 451 626 424 625 q 422 594 449 621 q 449 579 446 579 q 474 586 458 579 l 499 597 q 511 550 504 571 q 211 389 397 539 q 467 21 338 164 l 479 39 q 536 -26 518 13 m 413 138 l 403 135 l 372 186 l 381 189 l 413 138 m 157 60 q 154 35 157 51 q 151 10 151 18 q 128 17 136 10 q 131 139 128 86 q 133 166 131 147 q 136 194 136 185 q 150 128 139 181 q 157 60 157 92 m 375 603 l 371 611 l 357 604 l 357 596 l 375 603 m 381 572 l 376 582 l 308 544 l 308 535 l 381 572 m 303 532 l 297 539 l 271 513 l 276 506 l 303 532 m 406 556 l 400 564 l 192 424 l 197 415 l 406 556 m 354 592 l 349 600 l 132 429 l 138 421 l 354 592 m 267 501 l 261 510 l 240 496 l 246 488 l 267 501 m 217 325 q 204 393 204 367 q 158 361 189 381 q 217 261 161 351 q 189 307 214 268 q 172 357 171 336 q 217 325 181 357 m 88 369 l 88 410 l 78 410 l 78 369 l 88 369 m 250 214 l 224 261 l 215 258 l 242 214 l 250 214 m 68 574 q 46 633 68 571 l 46 467 q 50 324 46 421 q 53 176 54 226 l 68 574 m 178 290 l 126 340 l 119 335 l 171 283 l 178 290 m 33 93 l 33 176 l 24 176 l 24 93 l 33 93 z "},"L":{"ha":386,"x_min":3,"x_max":375,"o":"m 375 117 q 89 7 100 7 q 78 13 83 7 q 68 18 74 18 q 47 7 56 18 q 22 54 35 21 q 3 50 15 49 l 3 104 q 24 389 3 217 l 57 672 q 86 660 74 671 q 83 626 86 649 q 79 593 79 604 l 79 463 q 97 571 79 464 q 133 674 107 632 q 110 524 110 554 q 147 625 118 558 q 110 185 110 415 q 122 163 110 163 q 242 194 157 163 q 356 247 326 225 q 363 219 356 238 q 369 190 369 200 q 344 165 369 175 q 375 117 357 150 m 321 157 l 318 165 l 129 79 l 129 71 l 321 157 m 58 419 l 49 419 l 42 146 l 53 146 l 58 419 m 183 150 l 179 158 l 136 140 l 136 131 l 183 150 m 344 132 l 311 132 l 99 32 q 344 132 196 61 m 76 158 l 76 197 l 67 197 l 67 158 l 76 158 m 53 92 l 53 119 l 42 119 l 42 92 l 53 92 z "},"M":{"ha":651,"x_min":6,"x_max":606,"o":"m 606 249 q 603 126 606 208 q 600 4 600 44 l 585 -10 q 550 8 574 -3 q 534 -10 546 1 q 518 -28 522 -21 q 481 169 489 14 q 476 351 479 210 q 364 57 460 314 q 344 88 357 61 q 349 54 344 76 q 353 21 353 32 q 331 69 329 43 l 307 64 q 146 489 261 221 q 129 413 133 467 l 122 329 q 104 224 121 315 q 93 117 93 163 q 106 39 93 72 q 74 75 90 49 q 60 27 67 64 q 38 -28 54 -10 q 14 51 24 -10 q 6 138 6 103 q 32 394 6 203 q 78 639 60 597 q 38 335 60 551 q 29 272 38 326 q 24 210 22 232 l 26 122 q 58 301 46 208 q 80 489 64 364 q 133 657 96 614 q 157 638 142 656 q 160 626 160 633 q 156 606 160 615 l 303 267 q 311 294 311 274 q 186 614 311 301 q 213 585 204 606 l 225 615 q 267 474 246 544 q 321 339 294 388 q 379 465 346 386 q 433 593 419 564 q 519 699 467 664 q 497 653 518 688 q 500 646 497 649 q 531 688 519 663 q 536 669 531 676 q 563 681 547 681 q 575 660 564 671 l 556 664 q 551 638 551 654 q 561 556 551 600 q 579 475 568 529 q 606 249 606 339 m 500 549 l 490 549 l 483 521 l 493 521 l 500 549 m 514 513 q 486 468 486 485 q 494 435 486 468 q 514 513 507 475 m 469 482 l 461 482 l 435 414 l 444 411 l 469 482 m 588 256 q 549 513 588 328 q 564 342 564 356 l 560 51 q 588 256 588 215 m 460 538 l 335 294 q 343 267 339 286 l 460 538 m 519 15 l 519 442 q 497 318 497 403 q 519 15 497 183 m 128 621 l 117 621 l 111 586 l 121 586 l 128 621 m 471 429 l 471 435 q 408 306 450 392 q 365 176 365 213 q 374 132 365 190 l 432 285 q 471 429 471 390 m 293 231 l 151 549 l 285 201 q 293 231 285 218 m 325 190 l 325 249 l 315 249 l 315 190 l 325 190 m 343 124 l 338 164 l 326 164 l 333 124 l 343 124 m 92 317 l 92 356 l 81 356 l 81 317 l 92 317 m 85 281 l 85 314 l 75 314 l 75 281 l 85 281 m 79 278 l 69 278 l 63 208 l 74 208 l 79 278 z "},"N":{"ha":549,"x_min":11,"x_max":522,"o":"m 521 588 l 446 -25 q 421 47 442 -18 q 378 42 407 47 l 378 46 q 360 63 378 53 q 151 371 288 164 q 93 -25 138 247 q 61 -7 65 -7 q 52 -13 56 -7 q 43 -19 49 -19 q 28 -15 40 -19 q 11 -12 17 -10 l 11 475 q 115 629 11 603 q 153 563 131 624 q 210 461 178 492 q 157 625 194 517 q 125 689 146 646 q 194 588 147 672 q 263 469 254 479 q 226 486 250 476 q 353 288 263 419 q 364 351 364 310 l 364 536 q 354 665 364 532 q 399 625 376 661 l 426 569 q 382 636 411 603 q 376 619 376 629 q 397 564 376 615 q 418 460 418 513 q 413 360 418 426 q 408 260 408 293 q 411 203 408 228 q 438 453 438 208 l 438 647 q 460 546 460 594 q 449 426 460 529 q 436 224 432 274 l 442 154 q 469 218 461 160 q 474 296 471 244 q 504 618 492 465 q 521 588 522 601 m 400 458 q 385 515 400 469 q 381 422 385 483 q 378 328 378 360 q 382 239 378 282 q 400 458 400 385 m 235 432 l 226 456 l 218 453 l 225 432 l 235 432 m 343 218 l 203 438 l 194 435 l 333 215 l 343 218 m 232 294 l 149 450 l 140 446 l 222 294 l 232 294 m 422 60 l 417 133 q 408 121 408 128 q 412 107 408 117 q 415 92 415 97 q 414 83 415 88 l 401 89 q 422 60 408 71 m 271 235 l 263 258 l 254 254 l 261 235 l 271 235 m 36 360 l 36 431 l 26 431 l 26 360 l 36 360 m 131 354 q 96 456 131 408 l 72 35 q 131 354 131 196 m 76 422 q 61 515 81 467 q 53 392 53 475 l 53 267 q 46 233 51 260 q 42 200 42 213 l 42 53 l 76 422 z "},"O":{"ha":572,"x_min":1,"x_max":547,"o":"m 547 349 q 454 165 547 306 q 321 -8 371 40 q 335 17 322 0 q 347 40 347 33 l 346 49 q 288 14 325 38 l 260 14 l 260 21 q 268 61 260 44 q 270 44 271 58 q 276 31 269 31 q 378 103 306 31 q 453 206 451 175 q 364 125 435 179 q 265 67 289 67 q 81 314 225 67 l 60 314 q 229 68 85 185 q 96 193 164 86 q 31 367 31 294 q 100 567 31 464 q 268 679 176 679 q 386 629 339 631 l 356 660 q 478 525 407 649 q 547 349 547 407 m 192 49 q 165 25 189 25 q 63 157 128 25 q 1 324 1 281 l 1 361 q 69 181 24 300 q 165 43 124 43 q 192 49 161 43 m 508 422 l 501 450 l 490 450 l 497 422 l 508 422 m 450 503 q 338 614 396 614 q 301 585 315 614 q 326 590 310 585 q 349 596 342 596 q 450 503 375 596 m 375 553 l 335 579 l 329 571 l 369 546 l 375 553 m 519 357 l 514 414 l 503 414 l 510 357 l 519 357 m 460 324 l 450 324 l 431 268 l 440 265 l 460 324 m 271 642 q 226 628 268 640 q 108 550 165 610 q 51 428 51 490 l 51 421 q 271 642 158 549 m 176 519 l 169 525 l 132 486 l 138 481 l 176 519 m 433 379 q 360 472 433 419 q 253 543 325 496 l 281 547 q 425 443 310 539 q 357 522 419 465 q 274 578 294 578 q 192 489 254 578 q 121 376 140 417 l 279 169 q 374 265 329 211 q 433 379 433 338 m 403 214 q 394 235 394 224 q 401 258 394 246 q 289 154 369 222 q 317 139 304 140 q 403 214 347 157 m 124 465 l 115 471 l 76 419 l 85 414 l 124 465 m 124 424 l 115 429 l 94 401 l 103 396 l 124 424 m 99 375 l 90 381 l 65 344 l 72 339 l 99 375 m 258 153 q 104 356 235 208 q 117 314 106 318 q 168 221 132 294 q 232 139 199 158 q 258 153 246 150 m 282 131 l 282 142 l 249 135 l 249 125 l 282 131 z "},"P":{"ha":524,"x_min":-7,"x_max":508,"o":"m 508 539 l 500 504 q 403 590 476 561 q 278 636 369 603 l 257 633 q 436 508 315 588 l 407 483 q 419 450 419 461 q 293 328 419 415 q 157 221 163 238 q 319 317 232 244 q 453 453 397 381 q 331 303 431 371 q 161 193 274 267 q 161 115 161 115 q 150 49 160 51 q 138 178 138 75 q 132 235 138 215 q 111 179 111 219 q 114 131 111 163 q 117 82 117 99 q 107 13 117 42 q 99 33 99 21 q 102 53 99 40 q 106 74 106 67 q 83 119 106 97 q 79 86 79 104 q 81 58 79 76 q 82 31 82 40 q 58 58 58 35 l 58 218 q 50 265 58 233 q 39 311 40 303 q 17 496 17 419 q 26 581 17 544 q 74 636 42 636 q 87 627 79 636 q 100 618 94 618 q 140 629 110 618 q 185 646 181 644 q 119 649 154 649 q 13 643 74 649 l -7 664 l 136 667 q 335 635 235 667 q 508 539 446 600 m 221 19 q 192 13 211 17 q 179 57 189 28 q 189 174 179 97 q 196 96 194 157 q 221 19 196 47 m 381 511 l 306 542 l 306 533 l 376 503 l 381 511 m 317 565 q 179 625 258 625 q 143 615 158 625 q 317 565 238 583 m 358 469 q 267 532 347 494 q 157 569 188 569 l 125 569 l 358 469 m 340 449 q 238 499 279 479 q 131 533 169 529 l 131 501 q 141 451 131 485 q 161 411 151 418 q 149 383 149 406 q 152 349 149 372 q 156 313 156 325 q 257 363 197 317 q 340 449 317 408 m 375 443 q 272 353 342 413 q 156 293 203 293 q 153 269 153 261 q 154 264 153 268 q 279 339 214 290 q 375 443 358 397 m 136 253 l 136 351 q 125 438 136 382 q 110 522 111 506 q 106 417 106 507 l 106 389 q 106 360 106 381 q 107 321 107 335 q 107 253 107 321 l 136 253 m 63 318 l 63 538 q 42 576 63 565 q 38 557 42 569 q 35 538 35 544 q 63 318 35 472 z "},"Q":{"ha":638,"x_min":4,"x_max":653,"o":"m 653 -104 q 626 -199 653 -150 q 599 -167 599 -193 q 600 -140 599 -158 q 601 -114 601 -122 q 589 -49 601 -81 l 579 -67 q 554 -49 569 -64 q 557 -94 557 -64 q 538 -201 557 -201 q 517 -168 528 -201 l 529 -186 q 539 -150 539 -172 q 529 -78 539 -118 q 497 -101 521 -87 l 497 -93 q 500 -80 497 -89 q 503 -67 503 -71 q 442 73 503 -8 q 324 154 381 154 q 301 151 313 154 q 335 168 319 168 q 446 101 396 168 q 525 -11 472 64 l 525 -6 q 472 117 525 49 q 364 186 415 186 q 340 184 356 186 q 317 182 325 182 q 353 206 321 189 q 394 222 385 222 q 408 219 400 222 q 421 215 417 215 q 449 246 431 215 q 467 288 467 276 q 404 424 467 322 q 313 553 347 515 q 222 423 271 532 q 172 261 172 314 q 278 154 172 231 q 418 69 374 85 q 356 44 379 42 q 339 24 349 47 q 225 103 321 29 q 251 58 226 97 q 268 15 272 25 q 304 4 282 13 l 297 -78 q 222 -58 272 -74 q 108 59 192 -44 q 24 190 24 163 l 24 222 q 47 174 44 179 q 82 140 65 142 q 49 204 65 178 q 4 279 4 253 q 100 460 4 318 q 233 631 189 590 q 221 603 233 626 q 207 569 208 581 q 268 600 251 600 q 288 591 275 600 q 307 582 301 582 q 322 591 311 582 q 340 600 333 600 q 396 576 360 600 q 424 610 401 588 q 361 651 407 631 q 293 686 307 676 q 581 378 581 619 q 526 203 581 274 q 625 76 588 204 q 653 -104 653 -19 m 535 515 l 508 547 l 500 542 l 526 508 l 535 515 m 486 449 l 454 493 l 446 488 l 478 443 l 486 449 m 557 376 q 513 492 557 425 q 453 600 461 568 q 407 567 425 596 q 501 456 475 513 q 526 310 526 400 q 483 250 526 260 q 494 276 493 261 q 460 218 483 257 l 494 204 q 525 275 517 232 q 542 349 536 333 q 553 324 553 338 l 557 376 m 285 579 q 107 319 182 490 q 133 306 128 318 q 199 444 139 354 q 285 579 281 568 m 640 -96 q 632 -51 640 -92 q 529 186 608 74 l 497 178 q 618 -175 622 43 q 640 -96 640 -146 m 567 -36 l 567 3 q 557 29 565 11 q 425 190 501 158 q 513 79 482 149 q 567 -36 558 -25 m 122 461 q 63 379 82 408 q 22 289 24 318 q 46 268 35 290 q 63 238 61 239 l 63 243 q 122 461 63 356 m 365 72 l 260 146 l 254 138 l 360 64 l 365 72 m 108 276 l 108 306 l 97 306 l 97 276 l 108 276 m 246 118 l 196 182 l 188 175 l 238 113 l 246 118 m 213 108 q 122 240 185 154 q 89 233 111 236 q 140 163 99 197 q 213 108 164 144 m 274 -14 q 161 47 235 4 q 206 -1 182 21 q 256 -36 243 -36 q 274 -14 274 -36 z "},"R":{"ha":506,"x_min":-1,"x_max":490,"o":"m 490 -12 q 457 29 474 -6 q 443 6 457 6 q 322 75 411 6 q 426 -79 369 15 q 388 -31 424 -76 q 221 118 292 90 l 253 118 q 286 106 264 106 q 203 156 228 156 q 173 143 194 156 q 142 131 151 131 q 130 134 136 131 q 122 138 124 138 q 118 132 118 133 q 130 99 118 124 q 142 51 142 74 l 142 11 q 113 18 132 14 q 115 94 115 42 q 78 11 104 67 l 78 379 q 60 528 78 389 q 42 485 42 515 q 47 439 42 469 q 53 393 53 408 l 53 224 q 43 169 53 206 q 33 114 33 132 q 38 71 33 94 q 57 113 43 85 q 46 65 51 89 q 18 29 36 38 l -1 550 q 19 564 6 554 q 33 515 24 547 q 63 554 57 518 q 67 611 64 561 q 86 546 74 592 q 119 588 96 561 l 119 571 q 122 557 119 564 q 208 597 150 572 q 135 622 193 611 q 53 636 121 625 q 17 657 50 647 q 94 665 47 665 q 351 589 222 665 q 393 563 382 571 q 425 525 417 544 l 415 503 q 290 603 401 551 q 129 649 190 649 q 124 646 126 649 q 344 511 190 638 q 400 471 368 492 q 389 453 393 457 q 394 451 392 451 q 409 456 400 451 q 422 461 418 461 q 442 449 429 456 l 442 421 l 418 397 q 436 385 417 388 q 393 313 436 358 q 329 247 372 292 q 419 128 336 239 q 490 15 490 35 l 490 -12 m 324 486 l 257 518 l 257 508 l 319 478 l 324 486 m 257 542 q 188 569 200 569 q 154 557 178 569 q 257 542 189 553 m 361 378 l 354 406 l 344 406 l 350 378 l 361 378 m 329 422 l 328 429 q 263 474 317 451 q 181 497 210 497 l 143 497 q 215 438 142 471 q 317 407 283 407 q 329 422 329 407 m 408 371 q 250 242 356 321 l 271 228 q 408 371 340 269 m 90 486 l 90 514 l 81 514 l 81 486 l 90 486 m 299 393 q 143 443 228 411 q 140 369 143 418 q 136 296 136 321 q 145 280 136 288 q 156 269 154 272 q 236 319 185 274 q 299 393 282 363 m 336 360 l 331 368 l 165 246 l 171 238 l 336 360 m 96 426 l 96 478 l 86 478 l 86 426 l 96 426 m 451 38 l 385 140 q 307 233 346 199 q 293 211 294 221 q 365 132 328 183 l 429 44 q 451 38 442 46 m 353 121 l 267 201 l 261 194 l 350 114 l 353 121 m 253 210 l 244 228 l 236 224 l 243 210 l 253 210 m 122 456 q 103 210 118 401 q 115 271 106 222 q 122 332 122 306 l 122 456 m 265 158 l 250 181 l 242 175 l 256 154 l 265 158 m 226 193 l 192 208 q 190 199 190 203 q 206 185 190 185 q 219 189 211 185 q 226 193 226 193 m 36 349 l 36 376 l 26 376 l 26 349 l 36 349 m 179 174 l 174 182 l 135 156 l 140 147 l 179 174 m 108 190 l 99 190 l 92 144 l 103 144 l 108 190 z "},"S":{"ha":469,"x_min":10,"x_max":442,"o":"m 442 182 q 388 94 442 178 q 440 136 404 110 q 356 41 432 113 q 258 -31 279 -31 l 221 -31 q 215 -15 215 -25 q 219 -4 215 -8 l 204 11 q 71 -85 147 -39 l 64 -57 q 88 -56 68 -56 q 172 8 93 -56 q 161 35 168 18 q 89 6 139 22 q 110 47 86 24 q 115 29 108 35 q 165 63 133 38 q 160 64 164 64 q 146 62 156 64 q 132 60 136 60 q 130 72 131 61 q 121 83 129 83 q 40 65 110 83 q 29 100 35 76 q 82 94 56 94 q 158 119 103 94 q 232 158 207 142 q 93 264 185 193 q 10 404 10 333 q 72 561 10 475 q 193 683 125 633 l 201 656 q 94 557 154 629 q 28 435 28 479 l 32 389 l 53 389 q 121 538 51 451 q 247 647 186 619 q 258 624 247 624 q 274 626 264 624 q 289 629 283 629 q 383 577 336 629 q 436 475 431 525 q 406 468 428 468 q 399 425 401 454 q 258 551 361 449 q 197 488 235 540 q 160 410 160 435 q 243 340 160 382 q 356 294 304 310 q 401 285 394 288 q 422 249 424 274 q 349 275 397 257 q 341 265 346 272 q 333 254 336 257 q 371 242 349 242 q 416 217 390 236 q 442 182 442 197 m 360 578 l 319 608 l 314 600 l 353 571 l 360 578 m 401 492 l 285 578 l 278 569 l 396 483 l 401 492 m 360 490 l 332 517 l 326 511 l 353 483 l 360 490 m 192 565 l 183 571 l 79 429 l 88 424 l 192 565 m 333 279 q 208 328 258 311 q 310 257 279 257 q 333 279 315 257 m 336 225 l 328 228 l 314 200 l 322 196 l 336 225 m 303 222 l 229 271 l 225 263 l 296 214 l 303 222 m 201 258 q 114 365 158 308 l 106 338 q 201 258 129 289 m 281 189 l 139 265 l 135 257 l 276 179 l 281 189 m 63 331 q 40 383 63 353 l 40 349 q 63 331 49 340 m 321 143 l 314 151 l 194 53 l 200 44 l 321 143 m 344 58 q 226 -4 306 36 q 344 58 297 0 m 246 151 q 240 161 246 157 q 129 86 225 124 l 157 76 q 246 151 246 132 m 228 13 l 228 33 l 217 33 l 217 13 l 228 13 z "},"T":{"ha":458,"x_min":-24,"x_max":439,"o":"m 401 649 q 331 660 378 660 q -24 535 222 660 q 146 631 6 575 q 339 683 281 683 q 353 681 344 683 q 367 678 361 678 q 389 689 381 678 q 401 649 394 676 m 439 604 q 406 575 425 575 q 394 581 400 575 q 382 588 388 588 q 251 547 347 588 l 246 532 q 317 544 269 532 q 389 557 365 557 l 432 557 l 425 528 l 418 528 q 282 504 376 528 q 283 415 283 463 q 279 210 283 347 q 275 6 275 74 q 263 49 267 15 q 226 71 260 67 q 208 11 222 50 q 189 40 201 15 q 151 18 172 25 q 167 178 156 67 q 176 338 176 278 q 151 474 176 361 q 64 432 117 458 l 32 432 q 24 471 24 447 q 151 581 24 521 q 328 636 267 635 q 439 604 381 613 m 322 -6 l 294 -6 l 294 36 q 322 179 294 131 l 322 -6 m 354 603 l 297 611 q 67 506 138 558 q 354 603 217 564 m 235 533 l 231 542 l 181 510 l 183 501 l 235 533 m 157 503 l 153 511 l 89 486 l 89 478 l 157 503 m 207 282 l 200 451 l 190 451 l 196 282 l 207 282 m 271 335 q 256 497 272 350 l 249 76 l 271 335 m 235 333 q 232 432 235 403 q 225 485 231 447 l 219 138 q 235 333 235 250 m 188 142 l 179 142 l 167 49 l 175 49 l 188 142 z "},"U":{"ha":499,"x_min":7,"x_max":464,"o":"m 464 174 q 263 7 311 7 q 226 25 267 7 q 218 22 221 25 q 229 -4 228 11 q 71 121 190 7 q 64 119 64 121 l 65 118 q 58 115 65 115 q 7 196 36 115 l 21 589 q 35 331 28 582 q 67 607 53 469 q 78 578 69 597 q 115 600 86 586 q 79 556 104 585 l 83 493 q 114 558 90 517 q 104 496 104 536 l 107 235 q 140 625 114 365 q 154 613 146 624 q 174 638 161 621 q 144 465 158 565 q 128 294 128 349 q 154 235 128 235 q 167 240 164 235 q 175 218 175 232 q 128 214 160 218 q 265 121 233 121 q 286 124 261 121 l 292 121 l 332 343 q 322 429 332 325 l 303 636 l 318 643 q 331 564 332 590 q 361 569 340 567 q 354 532 354 557 q 365 451 354 497 q 376 514 376 476 q 357 667 376 521 q 371 624 361 664 q 397 568 381 583 q 403 535 403 561 q 413 524 406 533 q 429 565 415 538 q 441 506 431 547 q 451 443 451 465 l 451 219 q 441 200 451 218 q 431 171 431 182 l 432 163 q 464 174 443 172 m 422 356 q 407 439 422 378 q 382 217 394 297 q 411 282 399 235 q 422 356 422 325 m 382 354 l 372 354 l 342 176 l 351 176 l 382 354 m 413 201 l 403 206 l 372 154 l 381 150 l 413 201 m 358 147 l 350 153 l 311 107 l 319 101 l 358 147 m 69 368 l 69 419 l 60 419 l 60 368 l 69 368 m 400 126 l 393 135 l 297 61 l 303 53 l 400 126 m 310 90 l 304 99 l 282 85 l 288 76 l 310 90 m 64 260 l 64 365 l 53 365 l 53 260 l 64 260 m 260 93 q 189 139 256 96 l 189 110 q 260 93 222 93 m 124 176 l 117 199 l 107 196 l 115 176 l 124 176 m 265 61 q 111 144 233 64 q 153 77 117 111 q 224 43 190 43 q 265 61 247 43 m 64 206 l 57 233 l 47 233 l 54 206 l 64 206 z "},"V":{"ha":525,"x_min":4,"x_max":513,"o":"m 513 511 q 392 243 474 421 q 232 -10 326 106 q 249 -18 233 -18 q 185 -76 243 -60 l 185 -51 q 201 -27 185 -43 q 217 -4 217 -11 q 215 7 217 1 l 192 -8 q 226 69 190 15 l 217 85 q 185 67 207 76 q 82 310 154 125 q 4 544 4 508 l 4 594 q 29 569 17 593 q 51 540 42 546 l 207 157 l 64 553 q 79 594 61 561 l 92 560 q 96 583 97 567 q 182 343 121 501 q 185 353 185 347 q 101 692 185 357 q 167 494 133 626 q 229 294 201 354 q 325 447 274 338 l 404 615 q 328 413 383 521 q 226 219 294 349 l 229 193 l 440 589 l 238 160 l 246 144 l 479 583 q 508 569 488 578 l 333 222 q 433 375 381 263 q 513 511 486 488 m 372 232 l 364 235 l 260 69 l 268 67 l 372 232 m 114 296 l 76 403 l 68 400 l 106 296 l 114 296 m 192 108 l 179 140 l 169 140 l 183 106 l 192 108 z "},"W":{"ha":790,"x_min":1,"x_max":785,"o":"m 785 593 q 678 410 697 446 q 606 221 610 282 q 703 407 636 283 q 613 201 674 314 q 500 6 557 103 q 488 22 488 17 q 512 67 488 31 q 536 110 536 104 q 526 138 536 121 q 490 113 514 129 q 439 244 469 133 q 389 401 404 371 q 296 243 349 342 q 208 83 224 108 l 172 161 l 157 151 q 181 108 165 138 l 174 108 q 157 104 163 108 q 175 64 163 90 q 204 33 188 38 q 171 3 201 18 l 75 304 q 1 613 22 474 q 13 606 6 613 q 25 600 19 600 q 60 606 49 600 l 185 239 q 200 275 200 264 q 152 443 200 314 q 79 604 104 572 l 89 604 q 106 593 97 604 l 108 632 q 122 665 110 651 q 157 486 126 589 l 208 311 q 292 486 242 363 q 379 660 340 604 q 410 614 396 613 q 474 488 436 599 q 521 342 485 453 q 601 492 543 369 q 697 622 650 593 q 676 604 686 613 q 664 579 664 592 q 665 569 664 575 l 703 586 q 663 507 663 528 q 665 492 663 499 q 686 538 682 531 q 724 568 701 563 q 674 475 699 521 q 642 376 646 415 q 707 493 643 379 q 785 593 749 569 m 651 467 l 643 467 l 636 446 l 644 443 l 651 467 m 664 568 l 656 568 l 575 392 l 585 389 l 664 568 m 421 564 l 410 594 l 401 590 l 411 564 l 421 564 m 379 607 q 371 629 371 615 l 351 588 q 379 607 369 607 m 640 442 l 631 442 l 551 254 l 560 250 l 640 442 m 393 528 l 393 557 l 383 557 l 383 528 l 393 528 m 483 392 l 432 543 l 422 543 l 475 389 l 483 392 m 496 360 l 489 389 l 479 389 l 486 360 l 496 360 m 508 244 l 407 496 l 399 496 l 499 242 l 508 244 m 604 219 l 594 219 l 575 182 l 585 179 l 604 219 m 449 306 l 442 335 l 431 335 l 438 306 l 449 306 m 493 138 l 493 201 q 472 254 493 211 q 446 297 450 297 l 446 296 q 462 213 446 268 q 493 138 478 158 m 361 464 q 351 485 361 478 q 296 349 338 431 q 231 215 244 249 q 306 343 256 258 q 361 464 361 442 m 292 431 l 282 431 l 221 272 l 231 268 l 292 431 m 164 188 q 107 378 164 214 q 33 575 54 529 l 75 360 q 156 156 104 240 q 160 171 156 160 q 164 188 164 182 z "},"X":{"ha":472,"x_min":-24,"x_max":447,"o":"m 447 68 l 440 40 q 392 81 422 49 q 344 124 361 114 q 340 93 343 111 q 358 22 340 64 q 381 -44 378 -25 q 326 58 361 -26 q 263 172 292 143 q 260 158 260 165 q 288 108 260 142 q 315 56 315 74 l 315 22 q 240 107 279 51 q 175 201 219 139 q 126 146 131 153 q 104 76 101 111 l 88 88 q 79 106 79 93 q 83 125 79 114 q 51 90 69 118 q 21 51 33 61 q 13 106 19 71 q -24 78 -6 78 q 111 328 19 161 l 21 501 q 26 546 26 518 q 22 585 26 569 l 29 585 q 42 581 36 585 q 44 590 44 585 q 35 626 44 600 q 68 608 53 626 q 90 574 79 592 l 90 640 q 188 431 113 579 q 344 694 236 519 l 344 667 q 335 629 344 653 q 318 590 326 611 q 324 589 321 589 q 357 603 329 589 q 354 590 354 599 q 361 563 354 576 l 381 574 q 374 538 378 563 q 400 554 390 553 l 263 319 l 342 182 q 447 68 389 103 m 372 535 l 364 539 l 254 364 l 263 360 l 372 535 m 357 558 l 349 564 l 221 374 l 229 368 l 357 558 m 165 400 q 121 493 165 425 q 60 586 100 524 q 51 563 51 578 q 102 471 51 546 q 165 394 153 396 l 165 400 m 258 356 l 249 358 l 242 343 l 250 339 l 258 356 m 65 492 l 58 514 l 50 511 l 57 492 l 65 492 m 210 356 l 201 358 l 188 335 l 196 331 l 210 356 m 114 415 l 69 490 l 61 488 l 106 411 l 114 415 m 294 181 l 239 274 l 229 271 l 286 178 l 294 181 m 251 129 l 203 236 l 194 236 l 243 126 l 251 129 m 126 294 l 118 299 l 85 254 l 93 249 l 126 294 m 306 40 l 300 75 l 289 75 l 296 40 l 306 40 m 168 228 l 160 233 l 85 135 l 93 128 l 168 228 m 144 271 l 135 274 l 32 90 l 40 88 l 144 271 z "},"Y":{"ha":567,"x_min":-10,"x_max":556,"o":"m 556 614 q 196 53 508 411 q 206 78 197 60 q 214 110 214 96 q 151 49 197 101 q 86 3 113 3 q 155 74 110 26 q 201 157 200 121 q 119 85 151 118 q 107 103 115 103 q 86 99 114 103 q 169 226 117 153 l -10 646 l -10 674 q 13 650 7 669 q 22 619 21 624 q 25 629 25 624 q 23 645 25 635 q 21 661 21 656 q 46 679 36 661 q 76 643 60 671 l 89 668 q 269 367 151 569 q 363 518 313 418 q 446 675 424 640 q 367 489 447 633 l 285 343 q 304 313 285 331 q 465 667 431 499 l 474 667 q 489 656 489 668 q 424 494 489 631 q 343 319 351 344 q 447 500 392 371 q 542 674 501 629 q 390 319 451 494 q 481 461 436 371 l 556 614 m 113 572 l 106 600 l 96 600 l 101 572 l 113 572 m 64 608 l 57 636 l 47 636 l 54 608 l 64 608 m 196 464 l 182 494 l 174 490 l 188 464 l 196 464 m 82 572 l 68 608 l 60 604 l 74 572 l 82 572 m 244 321 l 117 572 l 108 568 l 235 321 l 244 321 m 279 293 l 264 308 l 258 303 l 274 288 l 279 293 m 218 286 q 197 268 211 279 q 185 269 190 269 q 178 265 178 269 q 183 258 178 263 q 103 419 140 317 q 39 589 46 575 l 218 286 m 254 244 q 240 271 242 257 q 135 140 172 211 q 254 244 176 174 z "},"Z":{"ha":646,"x_min":-24,"x_max":631,"o":"m 631 -12 q 472 44 581 11 q 88 76 268 76 q 53 71 76 76 q 19 65 31 65 q -24 60 -4 65 l 469 538 q 356 560 450 560 q 76 535 264 560 q 165 572 157 568 q 258 596 217 590 q 192 601 218 601 q 115 588 150 601 q 190 649 136 649 q 368 639 254 649 q 546 626 493 628 q 571 597 558 604 q 553 567 571 592 q 561 564 556 564 q 601 574 565 565 q 556 524 581 553 q 561 521 558 521 q 576 525 563 521 q 276 218 513 439 q 318 214 293 214 q 370 217 336 214 q 422 219 404 219 q 528 165 511 219 q 607 110 553 144 q 565 99 582 99 q 551 100 557 99 q 538 71 550 92 q 394 108 519 93 q 233 119 301 119 q 163 93 193 119 q 399 67 242 85 q 631 15 535 51 l 631 -12 m 468 572 l 468 583 l 326 583 l 326 572 l 468 572 m 306 614 l 306 625 l 272 632 l 272 621 l 306 614 m 482 475 l 475 479 l 389 386 l 396 382 l 482 475 m 251 621 l 251 631 l 164 631 l 164 621 l 251 621 m 451 497 l 447 504 l 181 256 l 183 249 l 451 497 m 529 140 q 463 136 518 140 q 396 133 425 133 l 390 133 q 448 129 410 133 q 506 125 486 125 q 529 140 515 125 m 414 194 l 414 204 l 356 204 l 356 194 l 414 194 m 308 269 l 303 276 l 233 221 l 239 213 l 308 269 m 511 163 q 439 179 478 179 q 199 139 258 179 q 511 163 304 151 m 329 189 l 329 199 l 254 199 l 254 189 l 329 189 m 129 133 l 122 154 l 113 154 l 119 131 l 129 133 m 136 97 l 69 107 q 31 90 56 101 q 136 97 58 97 z "},"[":{"ha":421,"x_min":4,"x_max":450,"o":"m 138 450 q 103 349 126 417 l 83 376 q 138 450 101 400 m 450 -251 q 409 -222 440 -249 q 371 -196 378 -196 q 358 -200 367 -196 q 344 -204 349 -204 q 243 -122 324 -204 q 143 -17 243 -122 q 221 -122 165 -65 q 311 -217 297 -200 q 300 -215 307 -217 q 289 -212 293 -212 q 279 -217 283 -212 q 328 -269 299 -231 q 135 -92 235 -210 q 4 131 25 38 q 69 8 25 68 q 161 -96 96 -26 q 69 53 160 -92 q 8 208 8 151 q 74 451 8 292 q 214 629 146 629 q 228 626 221 629 q 239 622 235 622 q 268 649 242 622 q 301 676 294 676 q 317 660 313 676 q 238 584 279 638 q 181 488 197 531 q 251 554 196 500 q 328 607 299 600 q 189 452 256 565 q 122 256 122 339 q 129 232 122 239 q 225 422 169 329 q 358 558 306 558 l 382 558 q 229 396 314 513 q 138 201 138 269 q 275 -31 138 157 q 450 -228 413 -219 l 450 -251 m 94 299 q 91 242 94 279 q 88 186 88 206 q 57 279 57 272 q 78 357 57 296 q 94 299 94 329 m 333 -165 l 331 -176 l 300 -150 l 303 -139 l 333 -165 z "},"\\":{"ha":482,"x_min":10,"x_max":515,"o":"m 515 -122 q 499 -131 511 -131 q 472 -119 482 -131 q 481 -167 475 -135 q 428 -103 464 -146 q 318 193 422 -50 q 179 497 226 408 q 117 586 158 526 l 454 -224 q 383 -104 428 -183 l 193 371 l 156 443 q 399 -162 283 43 q 276 60 342 -110 q 156 385 236 168 q 10 664 85 569 q 43 682 11 682 q 49 683 46 683 q 100 636 57 683 l 100 671 q 161 614 125 671 q 208 535 175 592 q 151 683 189 583 q 207 594 174 653 q 386 131 264 438 l 515 -122 m 186 539 l 136 624 l 128 617 l 179 532 l 186 539 m 125 518 l 100 569 l 92 563 l 118 511 l 125 518 m 303 286 l 276 338 l 268 331 l 294 279 l 303 286 m 338 207 l 315 250 l 307 243 l 329 200 l 338 207 m 410 39 l 393 86 l 385 79 l 403 32 l 410 39 m 472 -96 l 419 32 l 413 26 l 465 -101 l 472 -96 z "},"]":{"ha":489,"x_min":8,"x_max":454,"o":"m 375 376 l 356 349 q 321 450 344 382 q 375 376 339 425 m 401 279 q 371 186 401 272 q 367 242 371 206 q 364 299 364 279 q 381 357 364 329 q 401 279 401 296 m 8 -228 q 184 -32 47 -219 q 321 201 321 156 q 229 396 321 269 q 76 558 144 513 l 100 558 q 233 422 153 558 q 329 232 289 329 q 336 256 336 239 q 269 452 336 339 q 131 607 203 565 q 207 554 160 600 q 278 488 263 500 q 220 584 261 531 q 142 660 179 638 q 157 676 146 676 q 190 649 164 676 q 219 622 217 622 q 231 626 224 622 q 244 629 238 629 q 385 451 313 629 q 450 208 450 292 q 389 53 450 151 l 297 -96 q 389 8 363 -26 q 454 131 433 68 q 324 -92 433 38 q 131 -269 224 -210 q 179 -217 139 -251 q 169 -212 175 -212 q 158 -215 165 -212 q 147 -217 151 -217 q 238 -122 161 -200 q 315 -17 293 -65 q 215 -122 282 -53 q 114 -204 135 -204 q 101 -200 110 -204 q 88 -196 92 -196 q 49 -222 81 -196 q 8 -251 18 -249 l 8 -228 m 158 -150 l 128 -176 l 125 -165 l 156 -139 l 158 -150 z "},"^":{"ha":703,"x_min":0,"x_max":661,"o":"m 618 381 q 605 383 614 381 q 592 386 596 386 q 561 368 579 386 q 536 547 561 426 q 583 482 549 538 q 618 414 618 426 l 618 381 m 475 453 q 444 446 439 446 q 404 528 419 446 q 393 632 393 588 q 475 492 475 517 l 475 453 m 342 464 l 303 464 q 289 497 289 475 q 322 699 289 517 q 342 464 340 628 m 656 268 q 644 218 656 244 q 610 188 631 188 q 571 208 594 188 q 547 244 547 229 q 568 319 547 278 q 592 308 579 308 q 635 350 621 308 l 656 268 m 529 322 q 499 257 529 274 q 422 242 479 246 q 397 338 397 310 q 423 396 397 364 q 475 428 449 428 q 514 385 496 428 q 529 322 529 349 m 239 626 q 199 458 238 549 q 172 440 194 451 q 151 435 160 435 q 148 449 151 439 q 144 464 144 458 q 239 626 144 526 m 379 340 q 347 257 379 289 q 310 242 331 242 q 268 276 286 242 q 253 332 253 306 q 280 399 253 358 q 331 440 307 440 q 367 400 351 440 q 379 340 379 367 m 108 529 q 82 431 82 451 q 89 386 82 408 q 25 406 63 393 q 54 478 44 460 q 108 529 76 521 m 240 267 l 240 261 q 175 229 208 229 q 138 253 156 229 q 121 299 121 278 q 148 367 121 325 q 199 410 175 410 q 240 267 240 410 m 661 43 q 626 -1 661 19 q 565 -22 590 -22 q 528 -15 550 -22 q 492 -7 500 -8 q 318 1 429 1 q 221 -8 286 1 q 124 -17 156 -17 q 63 8 89 -17 q 36 68 36 33 q 163 196 36 151 q 361 229 256 229 q 553 190 471 229 q 661 43 661 139 m 114 244 q 96 196 114 211 q 44 169 86 188 q 0 228 0 206 q 26 331 0 267 q 40 328 31 331 q 54 326 50 326 q 88 350 76 326 q 104 297 92 338 q 114 244 114 265 z "},"_":{"ha":703,"x_min":0,"x_max":661,"o":"m 618 381 q 605 383 614 381 q 592 386 596 386 q 561 368 579 386 q 536 547 561 426 q 583 482 549 538 q 618 414 618 426 l 618 381 m 475 453 q 444 446 439 446 q 404 528 419 446 q 393 632 393 588 q 475 492 475 517 l 475 453 m 342 464 l 303 464 q 289 497 289 475 q 322 699 289 517 q 342 464 340 628 m 656 268 q 644 218 656 244 q 610 188 631 188 q 571 208 594 188 q 547 244 547 229 q 568 319 547 278 q 592 308 579 308 q 635 350 621 308 l 656 268 m 529 322 q 499 257 529 274 q 422 242 479 246 q 397 338 397 310 q 423 396 397 364 q 475 428 449 428 q 514 385 496 428 q 529 322 529 349 m 239 626 q 199 458 238 549 q 172 440 194 451 q 151 435 160 435 q 148 449 151 439 q 144 464 144 458 q 239 626 144 526 m 379 340 q 347 257 379 289 q 310 242 331 242 q 268 276 286 242 q 253 332 253 306 q 280 399 253 358 q 331 440 307 440 q 367 400 351 440 q 379 340 379 367 m 108 529 q 82 431 82 451 q 89 386 82 408 q 25 406 63 393 q 54 478 44 460 q 108 529 76 521 m 240 267 l 240 261 q 175 229 208 229 q 138 253 156 229 q 121 299 121 278 q 148 367 121 325 q 199 410 175 410 q 240 267 240 410 m 661 43 q 626 -1 661 19 q 565 -22 590 -22 q 528 -15 550 -22 q 492 -7 500 -8 q 318 1 429 1 q 221 -8 286 1 q 124 -17 156 -17 q 63 8 89 -17 q 36 68 36 33 q 163 196 36 151 q 361 229 256 229 q 553 190 471 229 q 661 43 661 139 m 114 244 q 96 196 114 211 q 44 169 86 188 q 0 228 0 206 q 26 331 0 267 q 40 328 31 331 q 54 326 50 326 q 88 350 76 326 q 104 297 92 338 q 114 244 114 265 z "},"`":{"ha":703,"x_min":0,"x_max":661,"o":"m 618 381 q 605 383 614 381 q 592 386 596 386 q 561 368 579 386 q 536 547 561 426 q 583 482 549 538 q 618 414 618 426 l 618 381 m 475 453 q 444 446 439 446 q 404 528 419 446 q 393 632 393 588 q 475 492 475 517 l 475 453 m 342 464 l 303 464 q 289 497 289 475 q 322 699 289 517 q 342 464 340 628 m 656 268 q 644 218 656 244 q 610 188 631 188 q 571 208 594 188 q 547 244 547 229 q 568 319 547 278 q 592 308 579 308 q 635 350 621 308 l 656 268 m 529 322 q 499 257 529 274 q 422 242 479 246 q 397 338 397 310 q 423 396 397 364 q 475 428 449 428 q 514 385 496 428 q 529 322 529 349 m 239 626 q 199 458 238 549 q 172 440 194 451 q 151 435 160 435 q 148 449 151 439 q 144 464 144 458 q 239 626 144 526 m 379 340 q 347 257 379 289 q 310 242 331 242 q 268 276 286 242 q 253 332 253 306 q 280 399 253 358 q 331 440 307 440 q 367 400 351 440 q 379 340 379 367 m 108 529 q 82 431 82 451 q 89 386 82 408 q 25 406 63 393 q 54 478 44 460 q 108 529 76 521 m 240 267 l 240 261 q 175 229 208 229 q 138 253 156 229 q 121 299 121 278 q 148 367 121 325 q 199 410 175 410 q 240 267 240 410 m 661 43 q 626 -1 661 19 q 565 -22 590 -22 q 528 -15 550 -22 q 492 -7 500 -8 q 318 1 429 1 q 221 -8 286 1 q 124 -17 156 -17 q 63 8 89 -17 q 36 68 36 33 q 163 196 36 151 q 361 229 256 229 q 553 190 471 229 q 661 43 661 139 m 114 244 q 96 196 114 211 q 44 169 86 188 q 0 228 0 206 q 26 331 0 267 q 40 328 31 331 q 54 326 50 326 q 88 350 76 326 q 104 297 92 338 q 114 244 114 265 z "},"a":{"ha":628,"x_min":3,"x_max":603,"o":"m 603 314 q 569 287 601 296 q 538 264 538 278 l 538 257 l 579 -64 l 544 -64 q 529 7 542 -44 q 525 -18 525 -4 q 531 -64 525 -36 q 486 78 500 -51 q 472 243 486 82 l 474 244 q 465 247 472 247 q 436 224 436 247 q 453 97 436 182 q 469 -32 469 11 q 468 -64 469 -43 q 454 78 472 -7 l 424 219 l 414 229 q 293 172 378 207 q 182 113 215 140 q 115 -4 131 69 q 107 38 114 10 l 108 36 q 96 32 108 31 l 90 35 l 90 38 q 74 44 90 38 q 57 72 57 51 q 118 265 57 160 q 244 447 144 311 q 354 625 325 557 q 446 681 372 631 q 510 372 469 578 q 543 361 521 360 q 539 340 543 354 q 535 318 535 325 q 538 307 535 314 q 549 306 543 306 q 576 314 563 306 l 603 314 m 133 368 q 64 197 110 311 q 32 21 25 94 q 3 47 3 29 q 57 206 3 75 q 133 368 111 336 m 424 626 l 421 635 l 407 626 l 407 618 l 424 626 m 401 610 l 393 615 l 379 594 l 388 589 l 401 610 m 497 357 l 461 529 l 453 529 l 489 357 l 497 357 m 453 339 l 453 365 q 410 518 453 400 q 382 464 382 478 q 413 326 382 436 q 453 339 426 332 m 460 307 l 457 317 l 424 296 l 426 288 l 460 307 m 324 406 l 315 411 l 301 390 l 310 385 l 324 406 m 546 50 l 521 253 l 513 253 l 536 50 l 546 50 m 393 315 q 367 440 385 357 q 257 249 331 376 l 393 315 m 318 467 l 310 471 l 185 269 l 193 265 l 318 467 m 551 8 l 551 43 l 542 43 l 542 8 l 551 8 m 306 376 l 297 382 l 193 228 l 201 222 l 306 376 m 269 443 l 261 446 l 103 185 l 111 181 l 269 443 m 186 265 l 176 265 l 146 197 l 154 193 l 186 265 z "},"b":{"ha":564,"x_min":10,"x_max":538,"o":"m 538 161 q 534 133 538 151 q 531 104 531 114 q 511 115 521 106 q 357 1 454 60 q 183 -64 247 -64 l 178 -64 q 460 96 313 -19 l 461 104 q 451 110 461 108 q 124 -35 249 -35 q 92 -26 115 -35 q 58 -17 69 -17 q 44 74 44 29 q 48 124 44 90 q 51 174 51 157 l 51 388 q 31 506 51 428 q 10 625 10 585 q 256 681 181 681 q 398 647 325 681 q 519 563 471 614 q 460 447 489 506 q 369 353 428 399 q 479 264 407 325 q 524 215 506 240 l 538 161 m 436 585 l 394 597 l 394 589 l 433 576 l 436 585 m 478 529 l 475 538 l 461 531 l 461 522 l 478 529 m 429 610 q 307 654 351 654 l 274 654 q 392 596 343 629 q 390 607 390 608 q 400 614 390 614 q 415 612 406 614 q 429 610 425 610 m 450 490 l 442 494 l 428 474 l 436 468 l 450 490 m 436 515 l 432 522 l 381 475 l 385 468 l 436 515 m 231 636 l 231 646 l 190 646 l 190 636 l 231 636 m 375 579 q 214 619 286 619 q 100 604 181 619 q 240 601 147 604 q 375 579 326 599 m 431 428 l 425 436 l 326 361 l 332 353 l 431 428 m 400 546 q 303 572 376 560 q 199 583 238 583 q 161 581 185 583 l 124 576 q 161 338 154 444 q 400 546 368 446 m 389 458 l 383 467 l 210 344 l 214 335 l 389 458 m 471 239 q 424 298 472 264 q 349 332 375 332 q 304 304 342 332 q 471 239 360 282 m 308 329 l 308 340 l 275 333 l 275 324 l 308 329 m 132 326 l 119 517 l 108 517 l 121 326 l 132 326 m 442 185 q 350 242 421 211 q 243 272 279 272 q 165 250 231 269 q 421 157 253 224 l 442 185 m 401 104 l 396 111 l 375 97 l 379 89 l 401 104 m 82 394 q 49 557 82 433 q 72 289 57 468 l 82 394 m 107 339 l 107 385 l 97 385 l 97 339 l 107 339 m 376 85 l 372 93 l 329 68 l 329 60 l 376 85 m 107 303 l 107 331 l 97 331 l 97 303 l 107 303 m 400 143 q 167 224 329 183 q 154 14 154 90 q 286 65 211 26 q 400 143 361 103 m 143 258 l 128 274 l 122 267 l 138 251 l 143 258 m 322 56 l 318 64 l 233 19 l 233 11 l 322 56 m 143 232 l 133 232 l 126 57 l 138 57 l 143 232 m 107 3 l 107 276 l 97 276 l 97 3 l 107 3 m 78 21 l 78 276 l 67 276 l 67 21 l 78 21 m 218 6 l 218 15 l 185 10 l 185 -1 l 218 6 z "},"c":{"ha":460,"x_min":-1,"x_max":492,"o":"m 363 608 l 329 589 l 326 597 l 360 617 l 363 608 m 492 657 q 298 508 450 651 q 146 326 146 364 q 254 171 146 271 q 417 51 349 83 l 390 51 q 247 150 335 51 q 136 303 185 219 q 128 285 128 297 q 210 125 128 214 q 357 14 283 43 q 272 53 321 18 q 193 106 207 99 q 258 29 213 69 q 344 -28 304 -11 q 326 -40 339 -40 q 290 -19 318 -40 q 257 1 261 1 q 244 -1 253 1 q 231 -4 236 -4 q 78 128 160 -4 q 1 321 1 250 q 72 442 1 361 q 171 556 165 547 q 74 479 93 497 q -1 381 22 433 q 151 558 22 456 q 356 689 264 647 q 303 647 347 675 q 313 646 307 646 q 325 647 317 646 q 338 649 333 649 q 239 578 324 636 q 151 493 178 535 q 264 576 189 521 q 375 639 350 639 q 389 636 379 639 q 404 633 399 633 q 447 653 413 633 q 492 675 481 674 l 492 657 m 99 251 q 79 207 99 228 q 56 267 56 253 q 90 339 56 271 q 94 295 90 324 q 99 251 99 267 m 144 135 q 86 192 125 153 l 107 213 q 144 135 119 186 z "},"d":{"ha":550,"x_min":47,"x_max":529,"o":"m 529 424 q 517 365 529 401 q 493 313 506 329 q 517 296 497 304 q 424 143 499 232 q 285 46 340 46 q 276 49 281 46 q 267 51 272 51 q 208 21 258 51 q 139 -8 158 -10 q 163 24 139 11 q 143 19 154 24 q 129 15 132 15 q 114 24 124 15 q 99 33 104 33 q 79 28 106 33 q 96 56 81 39 q 86 67 99 64 q 67 103 65 83 l 90 346 q 79 414 90 347 q 67 542 78 457 q 56 572 65 546 q 49 604 49 592 q 47 617 49 608 l 47 629 q 63 676 47 654 q 75 643 65 674 q 124 621 82 621 q 126 625 126 622 q 90 643 115 633 l 96 642 q 127 665 108 642 q 153 688 146 688 q 361 581 200 688 q 529 424 529 469 m 486 429 q 421 499 486 460 q 325 542 367 531 q 390 476 349 519 q 431 431 410 454 q 479 400 453 408 q 486 429 486 433 m 151 647 l 144 664 l 136 661 l 143 647 l 151 647 m 347 469 l 347 478 l 196 558 l 192 549 l 347 469 m 110 568 l 110 590 l 100 590 l 100 568 l 110 568 m 182 472 l 176 543 l 165 543 l 172 472 l 182 472 m 450 349 q 340 446 450 374 q 200 525 246 508 l 200 124 q 343 224 242 136 q 450 349 450 315 m 99 479 l 99 518 l 88 518 l 88 479 l 99 479 m 168 351 q 140 543 168 406 q 144 389 140 492 q 149 235 149 286 q 142 132 149 174 q 168 351 168 299 m 428 178 l 422 186 l 296 75 l 301 67 l 428 178 m 461 308 q 326 178 419 263 q 189 75 213 75 q 139 106 171 75 l 139 69 q 151 61 151 71 q 144 47 151 56 q 324 153 229 75 q 461 308 418 231 m 128 178 l 122 411 l 111 411 l 118 178 l 128 178 m 189 267 l 178 267 l 165 128 l 176 128 l 189 267 m 258 69 l 256 78 l 169 33 l 169 25 l 258 69 m 104 94 l 104 218 l 93 218 l 93 94 l 104 94 z "},"e":{"ha":506,"x_min":-11,"x_max":499,"o":"m 499 654 q 425 614 443 614 q 411 617 421 614 q 397 619 401 619 q 103 525 325 619 l 103 519 q 107 511 101 515 q 276 569 164 531 q 451 600 374 601 q 372 557 410 565 q 96 472 206 522 l 96 442 q 107 322 96 374 q 335 392 182 347 l 365 385 q 368 378 368 382 q 356 358 368 365 q 385 343 365 354 q 268 313 313 325 q 157 267 196 292 q 274 299 174 269 q 374 325 364 325 q 397 310 385 325 q 238 269 344 296 q 97 207 131 242 l 97 71 q 106 67 101 67 q 374 133 111 67 q 397 115 392 115 q 414 121 403 115 q 431 126 425 126 l 475 126 q 439 92 460 92 q 428 97 433 92 q 418 103 424 103 q 260 47 390 103 q 103 -28 136 -6 q 276 35 136 -21 q 446 79 390 79 q 481 65 456 79 q 467 43 482 43 q 457 49 461 43 q 447 56 453 56 l 425 56 q 424 49 424 53 q 425 40 424 46 q 426 32 426 35 q 418 31 424 31 q 401 34 413 31 q 385 38 390 38 q 199 -35 358 38 l 183 -24 q 63 -61 143 -44 q 97 -32 63 -54 q 89 -31 93 -31 q 57 -40 78 -31 q 21 38 46 -24 q -4 26 10 26 q -11 169 -11 78 q 61 632 -11 571 q 71 596 64 619 q 229 635 175 624 q 376 668 289 647 q 383 649 378 665 q 394 638 388 638 q 424 646 404 638 q 456 654 444 654 l 499 654 m 374 636 l 329 636 q 211 618 276 636 q 115 560 131 596 l 143 560 q 374 636 253 611 m 75 576 l 65 576 l 53 531 l 63 531 l 75 576 m 314 353 l 286 361 q 190 326 253 350 q 104 272 126 303 q 314 353 146 292 m 78 296 q 69 464 78 397 q 56 290 69 431 l 78 296 m 44 206 l 44 450 l 35 450 l 35 206 l 44 206 m 81 267 l 74 272 l 53 246 l 61 240 l 81 267 m 338 101 q 214 78 290 103 q 92 36 214 78 l 92 -4 l 338 101 m 78 56 l 78 211 q 57 142 58 196 q 50 63 56 76 q 78 56 58 60 m 39 186 l 29 186 l 22 128 l 33 128 l 39 186 m 75 1 l 68 25 l 58 22 l 65 1 l 75 1 z "},"f":{"ha":469,"x_min":8,"x_max":482,"o":"m 482 624 q 461 600 482 600 q 448 603 457 600 q 435 606 439 606 q 413 597 428 606 q 389 588 397 588 q 370 590 383 588 q 350 593 357 593 q 250 578 304 593 q 151 547 218 568 l 151 526 l 353 575 l 428 575 q 406 557 421 558 l 375 557 q 247 531 346 557 q 147 494 149 504 q 135 375 144 461 q 139 371 138 371 q 208 389 163 371 q 276 407 254 407 l 356 407 l 356 378 q 290 389 304 389 q 208 369 267 389 q 133 333 150 349 q 218 358 146 336 q 293 378 282 378 q 331 364 318 378 q 357 328 343 346 q 310 329 369 329 q 243 314 271 329 q 268 308 253 308 q 288 311 278 308 q 294 288 294 303 q 286 289 293 289 q 185 269 239 289 q 117 206 117 244 q 139 29 117 136 q 110 121 117 47 q 101 228 108 131 q 92 121 92 158 q 104 18 92 68 q 78 42 100 18 q 22 -10 58 25 q 30 17 22 -1 q 38 46 38 36 q 29 60 38 56 q 8 47 19 49 l 8 461 q 20 556 8 485 q 40 647 32 628 q 58 636 47 644 q 78 683 63 651 l 90 617 q 224 648 128 631 q 360 665 319 665 l 404 665 q 368 636 386 636 q 353 639 363 636 q 339 642 344 642 q 146 606 236 642 l 153 606 q 229 617 179 606 q 306 629 279 629 q 394 626 335 629 q 482 624 453 624 m 283 599 l 283 607 l 165 583 l 165 574 l 283 599 m 140 606 l 138 614 l 86 582 l 89 574 l 140 606 m 128 556 l 128 565 l 106 565 l 106 556 l 128 556 m 129 533 l 125 542 l 106 535 l 106 525 l 129 533 m 64 575 l 54 575 l 47 529 l 58 529 l 64 575 m 296 351 l 272 351 q 138 301 264 351 q 296 351 222 331 m 125 490 l 114 490 l 104 360 l 115 360 l 125 490 m 89 349 l 89 478 l 78 478 l 78 349 l 89 349 m 201 293 l 197 301 l 183 294 l 183 285 l 201 293 m 171 281 l 168 289 l 142 276 l 142 267 l 171 281 m 68 113 q 54 510 68 175 q 32 303 32 431 q 40 172 32 256 l 53 42 q 68 113 68 101 z "},"g":{"ha":508,"x_min":11,"x_max":464,"o":"m 464 139 q 426 14 464 107 q 400 32 410 13 q 369 -29 390 11 q 358 -11 369 -21 q 332 -28 346 -28 q 308 3 329 -14 q 274 19 288 19 q 260 17 269 19 q 247 14 251 14 q 51 196 182 14 q 14 249 42 211 q 11 263 11 254 q 44 358 11 278 q 43 367 43 361 q 160 547 43 414 q 324 681 278 681 l 365 681 l 379 658 q 206 515 293 601 q 67 340 106 417 l 71 314 q 382 638 214 506 l 428 631 q 378 590 404 593 q 144 293 144 389 q 224 182 144 247 q 340 92 244 165 q 356 146 356 108 q 339 269 353 163 q 236 224 313 261 l 247 250 q 242 251 246 251 q 230 250 238 251 q 218 249 222 249 q 219 257 219 253 q 215 274 219 263 q 211 290 211 285 q 266 348 211 310 q 343 386 321 386 q 358 383 349 386 q 374 379 368 379 q 388 388 382 379 q 396 397 394 396 q 435 340 415 365 q 464 139 464 303 m 303 213 l 282 192 l 276 199 l 296 219 l 303 213 m 265 608 l 261 615 l 186 547 l 190 540 l 265 608 m 406 335 l 392 364 l 383 364 l 397 331 l 406 335 m 356 358 l 333 368 q 278 328 315 354 q 356 358 325 351 m 335 313 l 332 322 l 278 303 l 278 293 l 335 313 m 446 179 q 433 237 446 196 q 411 289 421 278 q 433 172 433 219 q 429 111 433 144 q 421 50 426 89 q 446 179 446 164 m 382 81 l 382 258 l 371 258 l 371 81 l 382 81 m 69 396 l 61 399 l 53 383 l 61 379 l 69 396 m 168 403 q 79 285 121 346 q 90 286 86 286 q 110 263 99 286 q 126 231 124 232 q 117 271 117 247 q 168 403 117 329 m 339 61 l 288 106 l 282 97 l 333 53 l 339 61 m 344 19 l 321 28 l 321 18 l 340 11 l 344 19 m 194 163 l 161 194 l 156 189 l 188 156 l 194 163 m 67 313 q 32 267 38 292 q 54 272 39 272 q 67 313 54 289 m 81 276 l 72 276 l 65 257 l 74 253 l 81 276 m 189 125 l 85 236 l 78 232 l 182 121 l 189 125 z "},"h":{"ha":549,"x_min":3,"x_max":519,"o":"m 519 585 q 472 165 472 400 l 472 8 q 480 -15 472 0 q 489 -36 488 -29 q 450 6 472 -32 q 421 -31 436 -6 q 351 201 351 63 q 358 278 351 240 q 353 282 354 282 l 343 282 q 243 260 324 282 q 143 226 168 238 q 125 213 125 218 q 130 144 125 189 q 135 75 135 99 l 135 -18 q 101 74 106 74 q 92 54 96 68 q 65 129 65 78 q 58 210 67 193 q 46 114 46 135 q 63 38 46 68 q 31 85 36 39 q 25 153 29 107 l 11 214 q 3 276 3 251 q 31 482 3 322 q 76 683 60 642 q 108 660 89 675 q 74 400 92 556 q 63 278 63 300 q 68 269 63 274 q 110 524 68 272 q 154 631 122 600 q 158 590 158 614 q 149 466 158 549 q 140 342 140 383 q 371 396 250 392 q 386 529 379 432 q 408 660 392 617 q 421 613 411 644 q 463 654 436 625 l 478 631 l 456 478 q 439 313 439 365 q 440 282 439 294 q 476 459 464 338 q 511 636 488 581 l 519 585 m 442 501 q 433 576 442 522 q 413 410 429 519 q 435 415 419 413 q 438 458 435 429 q 442 501 442 488 m 450 269 l 440 269 l 433 235 l 443 235 l 450 269 m 438 233 l 428 233 l 421 193 l 432 193 l 438 233 m 421 381 q 393 256 418 371 q 376 129 376 179 q 383 103 376 119 q 390 78 390 86 q 421 381 421 328 m 461 215 l 453 215 l 438 67 l 446 67 l 461 215 m 346 353 l 304 353 q 213 331 261 353 q 136 303 156 306 l 346 353 m 138 528 l 128 528 l 100 338 l 110 338 l 138 528 m 363 317 l 363 326 l 131 260 l 131 250 l 363 317 m 72 594 q 42 438 68 560 q 21 279 21 339 q 31 204 21 242 l 72 594 m 114 311 l 104 311 l 97 283 l 107 283 l 114 311 m 108 254 l 100 260 l 85 239 l 93 232 l 108 254 m 72 244 l 61 244 l 54 217 l 65 217 l 72 244 m 97 83 l 97 210 q 82 138 82 164 q 97 83 82 108 z "},"i":{"ha":232,"x_min":3,"x_max":200,"o":"m 200 561 q 169 324 200 481 q 138 86 138 167 q 153 -22 138 28 q 144 -25 150 -25 q 103 -7 117 -25 q 82 36 100 -1 q 65 18 79 35 q 36 74 40 29 q 29 143 35 97 q 11 35 24 107 l 3 111 q 57 447 24 226 l 57 647 l 63 647 q 96 624 86 647 q 111 654 100 635 q 128 593 115 633 q 92 381 111 565 q 75 150 75 219 q 89 71 75 156 l 161 672 l 171 572 q 165 514 171 542 q 154 457 154 457 l 121 225 l 121 168 q 185 613 194 446 q 200 561 200 581 m 94 611 l 85 611 l 72 517 l 82 517 l 94 611 m 89 508 l 78 508 l 72 475 l 82 475 l 89 508 m 76 349 l 76 383 l 65 383 l 65 349 l 76 349 m 71 282 l 71 322 l 60 322 l 60 282 l 71 282 m 125 72 l 125 113 l 114 113 l 114 72 l 125 72 m 64 60 l 58 131 l 47 131 l 54 60 l 64 60 z "},"j":{"ha":404,"x_min":19,"x_max":367,"o":"m 367 482 q 364 404 367 456 q 361 326 361 353 q 367 297 361 301 q 274 -37 303 -37 q 263 -34 268 -37 q 251 -31 257 -31 q 237 -43 246 -31 q 222 -56 228 -56 l 189 -56 q 81 9 143 -56 q 19 119 19 74 l 19 156 q 100 28 42 54 q 79 78 99 43 q 60 167 60 113 q 69 215 60 190 q 101 243 82 247 q 96 222 96 235 q 132 135 96 183 q 206 82 168 88 q 228 482 228 299 l 228 644 q 257 671 228 658 q 268 611 257 651 q 303 636 296 632 q 342 653 326 651 q 356 568 343 631 q 367 482 367 511 m 303 439 l 296 581 l 286 581 l 292 439 l 303 439 m 342 368 q 321 497 342 421 q 322 438 322 467 q 290 99 322 372 q 342 368 342 264 m 276 365 q 272 425 276 385 q 267 485 267 465 l 231 76 q 276 365 276 264 m 267 94 l 257 94 l 250 67 l 260 67 l 267 94 m 258 26 l 258 36 l 229 43 l 229 33 l 258 26 m 97 132 l 85 190 l 76 190 l 89 132 l 97 132 m 211 50 l 147 85 l 143 76 l 207 42 l 211 50 m 263 -15 l 263 -4 l 229 -4 l 229 -15 l 263 -15 m 211 11 l 169 31 l 169 22 l 207 3 l 211 11 z "},"k":{"ha":528,"x_min":1,"x_max":536,"o":"m 213 556 l 179 529 l 174 538 l 207 564 l 213 556 m 536 -26 l 510 -26 q 482 -10 504 -26 l 467 -21 q 347 135 419 26 q 229 289 274 243 q 350 99 251 254 q 496 -74 422 -14 q 368 47 443 -49 q 253 193 269 175 q 433 -68 328 72 q 268 103 357 -18 q 119 292 158 251 l 82 -64 q 79 -1 79 -36 q 90 157 79 54 l 97 222 l 94 321 q 67 -26 67 172 q 44 -32 58 -32 q 42 27 44 -12 q 40 86 40 67 q 28 56 35 71 q 1 39 21 40 l 1 113 q 7 161 1 126 q 13 211 11 183 q 19 408 19 306 l 19 575 q 8 663 19 583 l 42 663 q 65 615 53 653 q 76 635 76 624 q 72 651 76 640 q 67 667 67 661 q 83 688 67 678 q 90 644 90 671 q 83 564 90 618 q 76 483 76 510 q 83 429 76 454 q 101 494 100 460 l 101 564 q 138 639 101 617 q 135 601 138 626 q 133 564 133 576 q 146 519 133 519 q 168 531 160 519 q 142 478 156 514 q 265 568 176 497 q 396 646 344 631 q 401 615 397 635 q 451 626 424 625 q 422 594 449 621 q 449 579 446 579 q 474 586 458 579 l 499 597 q 511 550 504 571 q 211 389 397 539 q 467 21 338 164 l 479 39 q 536 -26 518 13 m 413 138 l 403 135 l 372 186 l 381 189 l 413 138 m 157 60 q 154 35 157 51 q 151 10 151 18 q 128 17 136 10 q 131 139 128 86 q 133 166 131 147 q 136 194 136 185 q 150 128 139 181 q 157 60 157 92 m 375 603 l 371 611 l 357 604 l 357 596 l 375 603 m 381 572 l 376 582 l 308 544 l 308 535 l 381 572 m 303 532 l 297 539 l 271 513 l 276 506 l 303 532 m 406 556 l 400 564 l 192 424 l 197 415 l 406 556 m 354 592 l 349 600 l 132 429 l 138 421 l 354 592 m 267 501 l 261 510 l 240 496 l 246 488 l 267 501 m 217 325 q 204 393 204 367 q 158 361 189 381 q 217 261 161 351 q 189 307 214 268 q 172 357 171 336 q 217 325 181 357 m 88 369 l 88 410 l 78 410 l 78 369 l 88 369 m 250 214 l 224 261 l 215 258 l 242 214 l 250 214 m 68 574 q 46 633 68 571 l 46 467 q 50 324 46 421 q 53 176 54 226 l 68 574 m 178 290 l 126 340 l 119 335 l 171 283 l 178 290 m 33 93 l 33 176 l 24 176 l 24 93 l 33 93 z "},"l":{"ha":386,"x_min":3,"x_max":375,"o":"m 375 117 q 89 7 100 7 q 78 13 83 7 q 68 18 74 18 q 47 7 56 18 q 22 54 35 21 q 3 50 15 49 l 3 104 q 24 389 3 217 l 57 672 q 86 660 74 671 q 83 626 86 649 q 79 593 79 604 l 79 463 q 97 571 79 464 q 133 674 107 632 q 110 524 110 554 q 147 625 118 558 q 110 185 110 415 q 122 163 110 163 q 242 194 157 163 q 356 247 326 225 q 363 219 356 238 q 369 190 369 200 q 344 165 369 175 q 375 117 357 150 m 321 157 l 318 165 l 129 79 l 129 71 l 321 157 m 58 419 l 49 419 l 42 146 l 53 146 l 58 419 m 183 150 l 179 158 l 136 140 l 136 131 l 183 150 m 344 132 l 311 132 l 99 32 q 344 132 196 61 m 76 158 l 76 197 l 67 197 l 67 158 l 76 158 m 53 92 l 53 119 l 42 119 l 42 92 l 53 92 z "},"m":{"ha":651,"x_min":6,"x_max":606,"o":"m 606 249 q 603 126 606 208 q 600 4 600 44 l 585 -10 q 550 8 574 -3 q 534 -10 546 1 q 518 -28 522 -21 q 481 169 489 14 q 476 351 479 210 q 364 57 460 314 q 344 88 357 61 q 349 54 344 76 q 353 21 353 32 q 331 69 329 43 l 307 64 q 146 489 261 221 q 129 413 133 467 l 122 329 q 104 224 121 315 q 93 117 93 163 q 106 39 93 72 q 74 75 90 49 q 60 27 67 64 q 38 -28 54 -10 q 14 51 24 -10 q 6 138 6 103 q 32 394 6 203 q 78 639 60 597 q 38 335 60 551 q 29 272 38 326 q 24 210 22 232 l 26 122 q 58 301 46 208 q 80 489 64 364 q 133 657 96 614 q 157 638 142 656 q 160 626 160 633 q 156 606 160 615 l 303 267 q 311 294 311 274 q 186 614 311 301 q 213 585 204 606 l 225 615 q 267 474 246 544 q 321 339 294 388 q 379 465 346 386 q 433 593 419 564 q 519 699 467 664 q 497 653 518 688 q 500 646 497 649 q 531 688 519 663 q 536 669 531 676 q 563 681 547 681 q 575 660 564 671 l 556 664 q 551 638 551 654 q 561 556 551 600 q 579 475 568 529 q 606 249 606 339 m 500 549 l 490 549 l 483 521 l 493 521 l 500 549 m 514 513 q 486 468 486 485 q 494 435 486 468 q 514 513 507 475 m 469 482 l 461 482 l 435 414 l 444 411 l 469 482 m 588 256 q 549 513 588 328 q 564 342 564 356 l 560 51 q 588 256 588 215 m 460 538 l 335 294 q 343 267 339 286 l 460 538 m 519 15 l 519 442 q 497 318 497 403 q 519 15 497 183 m 128 621 l 117 621 l 111 586 l 121 586 l 128 621 m 471 429 l 471 435 q 408 306 450 392 q 365 176 365 213 q 374 132 365 190 l 432 285 q 471 429 471 390 m 293 231 l 151 549 l 285 201 q 293 231 285 218 m 325 190 l 325 249 l 315 249 l 315 190 l 325 190 m 343 124 l 338 164 l 326 164 l 333 124 l 343 124 m 92 317 l 92 356 l 81 356 l 81 317 l 92 317 m 85 281 l 85 314 l 75 314 l 75 281 l 85 281 m 79 278 l 69 278 l 63 208 l 74 208 l 79 278 z "},"n":{"ha":549,"x_min":11,"x_max":522,"o":"m 521 588 l 446 -25 q 421 47 442 -18 q 378 42 407 47 l 378 46 q 360 63 378 53 q 151 371 288 164 q 93 -25 138 247 q 61 -7 65 -7 q 52 -13 56 -7 q 43 -19 49 -19 q 28 -15 40 -19 q 11 -12 17 -10 l 11 475 q 115 629 11 603 q 153 563 131 624 q 210 461 178 492 q 157 625 194 517 q 125 689 146 646 q 194 588 147 672 q 263 469 254 479 q 226 486 250 476 q 353 288 263 419 q 364 351 364 310 l 364 536 q 354 665 364 532 q 399 625 376 661 l 426 569 q 382 636 411 603 q 376 619 376 629 q 397 564 376 615 q 418 460 418 513 q 413 360 418 426 q 408 260 408 293 q 411 203 408 228 q 438 453 438 208 l 438 647 q 460 546 460 594 q 449 426 460 529 q 436 224 432 274 l 442 154 q 469 218 461 160 q 474 296 471 244 q 504 618 492 465 q 521 588 522 601 m 400 458 q 385 515 400 469 q 381 422 385 483 q 378 328 378 360 q 382 239 378 282 q 400 458 400 385 m 235 432 l 226 456 l 218 453 l 225 432 l 235 432 m 343 218 l 203 438 l 194 435 l 333 215 l 343 218 m 232 294 l 149 450 l 140 446 l 222 294 l 232 294 m 422 60 l 417 133 q 408 121 408 128 q 412 107 408 117 q 415 92 415 97 q 414 83 415 88 l 401 89 q 422 60 408 71 m 271 235 l 263 258 l 254 254 l 261 235 l 271 235 m 36 360 l 36 431 l 26 431 l 26 360 l 36 360 m 131 354 q 96 456 131 408 l 72 35 q 131 354 131 196 m 76 422 q 61 515 81 467 q 53 392 53 475 l 53 267 q 46 233 51 260 q 42 200 42 213 l 42 53 l 76 422 z "},"o":{"ha":571,"x_min":1,"x_max":547,"o":"m 547 349 q 454 165 547 306 q 321 -8 371 40 q 335 17 322 0 q 347 40 347 33 l 346 49 q 288 14 325 38 l 260 14 l 260 21 q 268 61 260 44 q 270 44 271 58 q 276 31 269 31 q 378 103 306 31 q 453 206 451 175 q 364 125 435 179 q 265 67 289 67 q 81 314 225 67 l 60 314 q 229 68 85 185 q 96 193 164 86 q 31 367 31 294 q 100 567 31 464 q 268 679 176 679 q 386 629 339 631 l 356 660 q 478 525 407 649 q 547 349 547 407 m 192 49 q 165 25 189 25 q 63 157 128 25 q 1 324 1 281 l 1 361 q 69 181 24 300 q 165 43 124 43 q 192 49 161 43 m 508 422 l 501 450 l 490 450 l 497 422 l 508 422 m 450 503 q 338 614 396 614 q 301 585 315 614 q 326 590 310 585 q 349 596 342 596 q 450 503 375 596 m 375 553 l 335 579 l 329 571 l 369 546 l 375 553 m 519 357 l 514 414 l 503 414 l 510 357 l 519 357 m 460 324 l 450 324 l 431 268 l 440 265 l 460 324 m 271 642 q 226 628 268 640 q 108 550 165 610 q 51 428 51 490 l 51 421 q 271 642 158 549 m 176 519 l 169 525 l 132 486 l 138 481 l 176 519 m 433 379 q 360 472 433 419 q 253 543 325 496 l 281 547 q 425 443 310 539 q 357 522 419 465 q 274 578 294 578 q 192 489 254 578 q 121 376 140 417 l 279 169 q 374 265 329 211 q 433 379 433 338 m 403 214 q 394 235 394 224 q 401 258 394 246 q 289 154 369 222 q 317 139 304 140 q 403 214 347 157 m 124 465 l 115 471 l 76 419 l 85 414 l 124 465 m 124 424 l 115 429 l 94 401 l 103 396 l 124 424 m 99 375 l 90 381 l 65 344 l 72 339 l 99 375 m 258 153 q 104 356 235 208 q 117 314 106 318 q 168 221 132 294 q 232 139 199 158 q 258 153 246 150 m 282 131 l 282 142 l 249 135 l 249 125 l 282 131 z "},"p":{"ha":524,"x_min":-7,"x_max":508,"o":"m 508 539 l 500 504 q 403 590 476 561 q 278 636 369 603 l 257 633 q 436 508 315 588 l 407 483 q 419 450 419 461 q 293 328 419 415 q 157 221 163 238 q 319 317 232 244 q 453 453 397 381 q 331 303 431 371 q 161 193 274 267 q 161 115 161 115 q 150 49 160 51 q 138 178 138 75 q 132 235 138 215 q 111 179 111 219 q 114 131 111 163 q 117 82 117 99 q 107 13 117 42 q 99 33 99 21 q 102 53 99 40 q 106 74 106 67 q 83 119 106 97 q 79 86 79 104 q 81 58 79 76 q 82 31 82 40 q 58 58 58 35 l 58 218 q 50 265 58 233 q 39 311 40 303 q 17 496 17 419 q 26 581 17 544 q 74 636 42 636 q 87 627 79 636 q 100 618 94 618 q 140 629 110 618 q 185 646 181 644 q 119 649 154 649 q 13 643 74 649 l -7 664 l 136 667 q 335 635 235 667 q 508 539 446 600 m 221 19 q 192 13 211 17 q 179 57 189 28 q 189 174 179 97 q 196 96 194 157 q 221 19 196 47 m 381 511 l 306 542 l 306 533 l 376 503 l 381 511 m 317 565 q 179 625 258 625 q 143 615 158 625 q 317 565 238 583 m 358 469 q 267 532 347 494 q 157 569 188 569 l 125 569 l 358 469 m 340 449 q 238 499 279 479 q 131 533 169 529 l 131 501 q 141 451 131 485 q 161 411 151 418 q 149 383 149 406 q 152 349 149 372 q 156 313 156 325 q 257 363 197 317 q 340 449 317 408 m 375 443 q 272 353 342 413 q 156 293 203 293 q 153 269 153 261 q 154 264 153 268 q 279 339 214 290 q 375 443 358 397 m 136 253 l 136 351 q 125 438 136 382 q 110 522 111 506 q 106 417 106 507 l 106 389 q 106 360 106 381 q 107 321 107 335 q 107 253 107 321 l 136 253 m 63 318 l 63 538 q 42 576 63 565 q 38 557 42 569 q 35 538 35 544 q 63 318 35 472 z "},"q":{"ha":638,"x_min":4,"x_max":653,"o":"m 653 -104 q 626 -199 653 -150 q 599 -167 599 -193 q 600 -140 599 -158 q 601 -114 601 -122 q 589 -49 601 -81 l 579 -67 q 554 -49 569 -64 q 557 -94 557 -64 q 538 -201 557 -201 q 517 -168 528 -201 l 529 -186 q 539 -150 539 -172 q 529 -78 539 -118 q 497 -101 521 -87 l 497 -93 q 500 -80 497 -89 q 503 -67 503 -71 q 442 73 503 -8 q 324 154 381 154 q 301 151 313 154 q 335 168 319 168 q 446 101 396 168 q 525 -11 472 64 l 525 -6 q 472 117 525 49 q 364 186 415 186 q 340 184 356 186 q 317 182 325 182 q 353 206 321 189 q 394 222 385 222 q 408 219 400 222 q 421 215 417 215 q 449 246 431 215 q 467 288 467 276 q 404 424 467 322 q 313 553 347 515 q 222 423 271 532 q 172 261 172 314 q 278 154 172 231 q 418 69 374 85 q 356 44 379 42 q 339 24 349 47 q 225 103 321 29 q 251 58 226 97 q 268 15 272 25 q 304 4 282 13 l 297 -78 q 222 -58 272 -74 q 108 59 192 -44 q 24 190 24 163 l 24 222 q 47 174 44 179 q 82 140 65 142 q 49 204 65 178 q 4 279 4 253 q 100 460 4 318 q 233 631 189 590 q 221 603 233 626 q 207 569 208 581 q 268 600 251 600 q 288 591 275 600 q 307 582 301 582 q 322 591 311 582 q 340 600 333 600 q 396 576 360 600 q 424 610 401 588 q 361 651 407 631 q 293 686 307 676 q 581 378 581 619 q 526 203 581 274 q 625 76 588 204 q 653 -104 653 -19 m 535 515 l 508 547 l 500 542 l 526 508 l 535 515 m 486 449 l 454 493 l 446 488 l 478 443 l 486 449 m 557 376 q 513 492 557 425 q 453 600 461 568 q 407 567 425 596 q 501 456 475 513 q 526 310 526 400 q 483 250 526 260 q 494 276 493 261 q 460 218 483 257 l 494 204 q 525 275 517 232 q 542 349 536 333 q 553 324 553 338 l 557 376 m 285 579 q 107 319 182 490 q 133 306 128 318 q 199 444 139 354 q 285 579 281 568 m 640 -96 q 632 -51 640 -92 q 529 186 608 74 l 497 178 q 618 -175 622 43 q 640 -96 640 -146 m 567 -36 l 567 3 q 557 29 565 11 q 425 190 501 158 q 513 79 482 149 q 567 -36 558 -25 m 122 461 q 63 379 82 408 q 22 289 24 318 q 46 268 35 290 q 63 238 61 239 l 63 243 q 122 461 63 356 m 365 72 l 260 146 l 254 138 l 360 64 l 365 72 m 108 276 l 108 306 l 97 306 l 97 276 l 108 276 m 246 118 l 196 182 l 188 175 l 238 113 l 246 118 m 213 108 q 122 240 185 154 q 89 233 111 236 q 140 163 99 197 q 213 108 164 144 m 274 -14 q 161 47 235 4 q 206 -1 182 21 q 256 -36 243 -36 q 274 -14 274 -36 z "},"r":{"ha":506,"x_min":-1,"x_max":490,"o":"m 490 -12 q 457 29 474 -6 q 443 6 457 6 q 322 75 411 6 q 426 -79 369 15 q 388 -31 424 -76 q 221 118 292 90 l 253 118 q 286 106 264 106 q 203 156 228 156 q 173 143 194 156 q 142 131 151 131 q 130 134 136 131 q 122 138 124 138 q 118 132 118 133 q 130 99 118 124 q 142 51 142 74 l 142 11 q 113 18 132 14 q 115 94 115 42 q 78 11 104 67 l 78 379 q 60 528 78 389 q 42 485 42 515 q 47 439 42 469 q 53 393 53 408 l 53 224 q 43 169 53 206 q 33 114 33 132 q 38 71 33 94 q 57 113 43 85 q 46 65 51 89 q 18 29 36 38 l -1 550 q 19 564 6 554 q 33 515 24 547 q 63 554 57 518 q 67 611 64 561 q 86 546 74 592 q 119 588 96 561 l 119 571 q 122 557 119 564 q 208 597 150 572 q 135 622 193 611 q 53 636 121 625 q 17 657 50 647 q 94 665 47 665 q 351 589 222 665 q 393 563 382 571 q 425 525 417 544 l 415 503 q 290 603 401 551 q 129 649 190 649 q 124 646 126 649 q 344 511 190 638 q 400 471 368 492 q 389 453 393 457 q 394 451 392 451 q 409 456 400 451 q 422 461 418 461 q 442 449 429 456 l 442 421 l 418 397 q 436 385 417 388 q 393 313 436 358 q 329 247 372 292 q 419 128 336 239 q 490 15 490 35 l 490 -12 m 324 486 l 257 518 l 257 508 l 319 478 l 324 486 m 257 542 q 188 569 200 569 q 154 557 178 569 q 257 542 189 553 m 361 378 l 354 406 l 344 406 l 350 378 l 361 378 m 329 422 l 328 429 q 263 474 317 451 q 181 497 210 497 l 143 497 q 215 438 142 471 q 317 407 283 407 q 329 422 329 407 m 408 371 q 250 242 356 321 l 271 228 q 408 371 340 269 m 90 486 l 90 514 l 81 514 l 81 486 l 90 486 m 299 393 q 143 443 228 411 q 140 369 143 418 q 136 296 136 321 q 145 280 136 288 q 156 269 154 272 q 236 319 185 274 q 299 393 282 363 m 336 360 l 331 368 l 165 246 l 171 238 l 336 360 m 96 426 l 96 478 l 86 478 l 86 426 l 96 426 m 451 38 l 385 140 q 307 233 346 199 q 293 211 294 221 q 365 132 328 183 l 429 44 q 451 38 442 46 m 353 121 l 267 201 l 261 194 l 350 114 l 353 121 m 253 210 l 244 228 l 236 224 l 243 210 l 253 210 m 122 456 q 103 210 118 401 q 115 271 106 222 q 122 332 122 306 l 122 456 m 265 158 l 250 181 l 242 175 l 256 154 l 265 158 m 226 193 l 192 208 q 190 199 190 203 q 206 185 190 185 q 219 189 211 185 q 226 193 226 193 m 36 349 l 36 376 l 26 376 l 26 349 l 36 349 m 179 174 l 174 182 l 135 156 l 140 147 l 179 174 m 108 190 l 99 190 l 92 144 l 103 144 l 108 190 z "},"s":{"ha":469,"x_min":10,"x_max":442,"o":"m 442 182 q 388 94 442 178 q 440 136 404 110 q 356 41 432 113 q 258 -31 279 -31 l 221 -31 q 215 -15 215 -25 q 219 -4 215 -8 l 204 11 q 71 -85 147 -39 l 64 -57 q 88 -56 68 -56 q 172 8 93 -56 q 161 35 168 18 q 89 6 139 22 q 110 47 86 24 q 115 29 108 35 q 165 63 133 38 q 160 64 164 64 q 146 62 156 64 q 132 60 136 60 q 130 72 131 61 q 121 83 129 83 q 40 65 110 83 q 29 100 35 76 q 82 94 56 94 q 158 119 103 94 q 232 158 207 142 q 93 264 185 193 q 10 404 10 333 q 72 561 10 475 q 193 683 125 633 l 201 656 q 94 557 154 629 q 28 435 28 479 l 32 389 l 53 389 q 121 538 51 451 q 247 647 186 619 q 258 624 247 624 q 274 626 264 624 q 289 629 283 629 q 383 577 336 629 q 436 475 431 525 q 406 468 428 468 q 399 425 401 454 q 258 551 361 449 q 197 488 235 540 q 160 410 160 435 q 243 340 160 382 q 356 294 304 310 q 401 285 394 288 q 422 249 424 274 q 349 275 397 257 q 341 265 346 272 q 333 254 336 257 q 371 242 349 242 q 416 217 390 236 q 442 182 442 197 m 360 578 l 319 608 l 314 600 l 353 571 l 360 578 m 401 492 l 285 578 l 278 569 l 396 483 l 401 492 m 360 490 l 332 517 l 326 511 l 353 483 l 360 490 m 192 565 l 183 571 l 79 429 l 88 424 l 192 565 m 333 279 q 208 328 258 311 q 310 257 279 257 q 333 279 315 257 m 336 225 l 328 228 l 314 200 l 322 196 l 336 225 m 303 222 l 229 271 l 225 263 l 296 214 l 303 222 m 201 258 q 114 365 158 308 l 106 338 q 201 258 129 289 m 281 189 l 139 265 l 135 257 l 276 179 l 281 189 m 63 331 q 40 383 63 353 l 40 349 q 63 331 49 340 m 321 143 l 314 151 l 194 53 l 200 44 l 321 143 m 344 58 q 226 -4 306 36 q 344 58 297 0 m 246 151 q 240 161 246 157 q 129 86 225 124 l 157 76 q 246 151 246 132 m 228 13 l 228 33 l 217 33 l 217 13 l 228 13 z "},"t":{"ha":451,"x_min":-24,"x_max":439,"o":"m 401 649 q 331 660 378 660 q -24 535 222 660 q 146 631 6 575 q 339 683 281 683 q 353 681 344 683 q 367 678 361 678 q 389 689 381 678 q 401 649 394 676 m 439 604 q 406 575 425 575 q 394 581 400 575 q 382 588 388 588 q 251 547 347 588 l 246 532 q 317 544 269 532 q 389 557 365 557 l 432 557 l 425 528 l 418 528 q 282 504 376 528 q 283 415 283 463 q 279 210 283 347 q 275 6 275 74 q 263 49 267 15 q 226 71 260 67 q 208 11 222 50 q 189 40 201 15 q 151 18 172 25 q 167 178 156 67 q 176 338 176 278 q 151 474 176 361 q 64 432 117 458 l 32 432 q 24 471 24 447 q 151 581 24 521 q 328 636 267 635 q 439 604 381 613 m 322 -6 l 294 -6 l 294 36 q 322 179 294 131 l 322 -6 m 354 603 l 297 611 q 67 506 138 558 q 354 603 217 564 m 235 533 l 231 542 l 181 510 l 183 501 l 235 533 m 157 503 l 153 511 l 89 486 l 89 478 l 157 503 m 207 282 l 200 451 l 190 451 l 196 282 l 207 282 m 271 335 q 256 497 272 350 l 249 76 l 271 335 m 235 333 q 232 432 235 403 q 225 485 231 447 l 219 138 q 235 333 235 250 m 188 142 l 179 142 l 167 49 l 175 49 l 188 142 z "},"u":{"ha":501,"x_min":7,"x_max":464,"o":"m 464 174 q 263 7 311 7 q 226 25 267 7 q 218 22 221 25 q 229 -4 228 11 q 71 121 190 7 q 64 119 64 121 l 65 118 q 58 115 65 115 q 7 196 36 115 l 21 589 q 35 331 28 582 q 67 607 53 469 q 78 578 69 597 q 115 600 86 586 q 79 556 104 585 l 83 493 q 114 558 90 517 q 104 496 104 536 l 107 235 q 140 625 114 365 q 154 613 146 624 q 174 638 161 621 q 144 465 158 565 q 128 294 128 349 q 154 235 128 235 q 167 240 164 235 q 175 218 175 232 q 128 214 160 218 q 265 121 233 121 q 286 124 261 121 l 292 121 l 332 343 q 322 429 332 325 l 303 636 l 318 643 q 331 564 332 590 q 361 569 340 567 q 354 532 354 557 q 365 451 354 497 q 376 514 376 476 q 357 667 376 521 q 371 624 361 664 q 397 568 381 583 q 403 535 403 561 q 413 524 406 533 q 429 565 415 538 q 441 506 431 547 q 451 443 451 465 l 451 219 q 441 200 451 218 q 431 171 431 182 l 432 163 q 464 174 443 172 m 422 356 q 407 439 422 378 q 382 217 394 297 q 411 282 399 235 q 422 356 422 325 m 382 354 l 372 354 l 342 176 l 351 176 l 382 354 m 413 201 l 403 206 l 372 154 l 381 150 l 413 201 m 358 147 l 350 153 l 311 107 l 319 101 l 358 147 m 69 368 l 69 419 l 60 419 l 60 368 l 69 368 m 400 126 l 393 135 l 297 61 l 303 53 l 400 126 m 310 90 l 304 99 l 282 85 l 288 76 l 310 90 m 64 260 l 64 365 l 53 365 l 53 260 l 64 260 m 260 93 q 189 139 256 96 l 189 110 q 260 93 222 93 m 124 176 l 117 199 l 107 196 l 115 176 l 124 176 m 265 61 q 111 144 233 64 q 153 77 117 111 q 224 43 190 43 q 265 61 247 43 m 64 206 l 57 233 l 47 233 l 54 206 l 64 206 z "},"v":{"ha":525,"x_min":4,"x_max":513,"o":"m 513 511 q 392 243 474 421 q 232 -10 326 106 q 249 -18 233 -18 q 185 -76 243 -60 l 185 -51 q 201 -27 185 -43 q 217 -4 217 -11 q 215 7 217 1 l 192 -8 q 226 69 190 15 l 217 85 q 185 67 207 76 q 82 310 154 125 q 4 544 4 508 l 4 594 q 29 569 17 593 q 51 540 42 546 l 207 157 l 64 553 q 79 594 61 561 l 92 560 q 96 583 97 567 q 182 343 121 501 q 185 353 185 347 q 101 692 185 357 q 167 494 133 626 q 229 294 201 354 q 325 447 274 338 l 404 615 q 328 413 383 521 q 226 219 294 349 l 229 193 l 440 589 l 238 160 l 246 144 l 479 583 q 508 569 488 578 l 333 222 q 433 375 381 263 q 513 511 486 488 m 372 232 l 364 235 l 260 69 l 268 67 l 372 232 m 114 296 l 76 403 l 68 400 l 106 296 l 114 296 m 192 108 l 179 140 l 169 140 l 183 106 l 192 108 z "},"w":{"ha":790,"x_min":1,"x_max":785,"o":"m 785 593 q 678 410 697 446 q 606 221 610 282 q 703 407 636 283 q 613 201 674 314 q 500 6 557 103 q 488 22 488 17 q 512 67 488 31 q 536 110 536 104 q 526 138 536 121 q 490 113 514 129 q 439 244 469 133 q 389 401 404 371 q 296 243 349 342 q 208 83 224 108 l 172 161 l 157 151 q 181 108 165 138 l 174 108 q 157 104 163 108 q 175 64 163 90 q 204 33 188 38 q 171 3 201 18 l 75 304 q 1 613 22 474 q 13 606 6 613 q 25 600 19 600 q 60 606 49 600 l 185 239 q 200 275 200 264 q 152 443 200 314 q 79 604 104 572 l 89 604 q 106 593 97 604 l 108 632 q 122 665 110 651 q 157 486 126 589 l 208 311 q 292 486 242 363 q 379 660 340 604 q 410 614 396 613 q 474 488 436 599 q 521 342 485 453 q 601 492 543 369 q 697 622 650 593 q 676 604 686 613 q 664 579 664 592 q 665 569 664 575 l 703 586 q 663 507 663 528 q 665 492 663 499 q 686 538 682 531 q 724 568 701 563 q 674 475 699 521 q 642 376 646 415 q 707 493 643 379 q 785 593 749 569 m 651 467 l 643 467 l 636 446 l 644 443 l 651 467 m 664 568 l 656 568 l 575 392 l 585 389 l 664 568 m 421 564 l 410 594 l 401 590 l 411 564 l 421 564 m 379 607 q 371 629 371 615 l 351 588 q 379 607 369 607 m 640 442 l 631 442 l 551 254 l 560 250 l 640 442 m 393 528 l 393 557 l 383 557 l 383 528 l 393 528 m 483 392 l 432 543 l 422 543 l 475 389 l 483 392 m 496 360 l 489 389 l 479 389 l 486 360 l 496 360 m 508 244 l 407 496 l 399 496 l 499 242 l 508 244 m 604 219 l 594 219 l 575 182 l 585 179 l 604 219 m 449 306 l 442 335 l 431 335 l 438 306 l 449 306 m 493 138 l 493 201 q 472 254 493 211 q 446 297 450 297 l 446 296 q 462 213 446 268 q 493 138 478 158 m 361 464 q 351 485 361 478 q 296 349 338 431 q 231 215 244 249 q 306 343 256 258 q 361 464 361 442 m 292 431 l 282 431 l 221 272 l 231 268 l 292 431 m 164 188 q 107 378 164 214 q 33 575 54 529 l 75 360 q 156 156 104 240 q 160 171 156 160 q 164 188 164 182 z "},"x":{"ha":472,"x_min":-24,"x_max":447,"o":"m 447 68 l 440 40 q 392 81 422 49 q 344 124 361 114 q 340 93 343 111 q 358 22 340 64 q 381 -44 378 -25 q 326 58 361 -26 q 263 172 292 143 q 260 158 260 165 q 288 108 260 142 q 315 56 315 74 l 315 22 q 240 107 279 51 q 175 201 219 139 q 126 146 131 153 q 104 76 101 111 l 88 88 q 79 106 79 93 q 83 125 79 114 q 51 90 69 118 q 21 51 33 61 q 13 106 19 71 q -24 78 -6 78 q 111 328 19 161 l 21 501 q 26 546 26 518 q 22 585 26 569 l 29 585 q 42 581 36 585 q 44 590 44 585 q 35 626 44 600 q 68 608 53 626 q 90 574 79 592 l 90 640 q 188 431 113 579 q 344 694 236 519 l 344 667 q 335 629 344 653 q 318 590 326 611 q 324 589 321 589 q 357 603 329 589 q 354 590 354 599 q 361 563 354 576 l 381 574 q 374 538 378 563 q 400 554 390 553 l 263 319 l 342 182 q 447 68 389 103 m 372 535 l 364 539 l 254 364 l 263 360 l 372 535 m 357 558 l 349 564 l 221 374 l 229 368 l 357 558 m 165 400 q 121 493 165 425 q 60 586 100 524 q 51 563 51 578 q 102 471 51 546 q 165 394 153 396 l 165 400 m 258 356 l 249 358 l 242 343 l 250 339 l 258 356 m 65 492 l 58 514 l 50 511 l 57 492 l 65 492 m 210 356 l 201 358 l 188 335 l 196 331 l 210 356 m 114 415 l 69 490 l 61 488 l 106 411 l 114 415 m 294 181 l 239 274 l 229 271 l 286 178 l 294 181 m 251 129 l 203 236 l 194 236 l 243 126 l 251 129 m 126 294 l 118 299 l 85 254 l 93 249 l 126 294 m 306 40 l 300 75 l 289 75 l 296 40 l 306 40 m 168 228 l 160 233 l 85 135 l 93 128 l 168 228 m 144 271 l 135 274 l 32 90 l 40 88 l 144 271 z "},"y":{"ha":567,"x_min":-10,"x_max":556,"o":"m 556 614 q 196 53 508 411 q 206 78 197 60 q 214 110 214 96 q 151 49 197 101 q 86 3 113 3 q 155 74 110 26 q 201 157 200 121 q 119 85 151 118 q 107 103 115 103 q 86 99 114 103 q 169 226 117 153 l -10 646 l -10 674 q 13 650 7 669 q 22 619 21 624 q 25 629 25 624 q 23 645 25 635 q 21 661 21 656 q 46 679 36 661 q 76 643 60 671 l 89 668 q 269 367 151 569 q 363 518 313 418 q 446 675 424 640 q 367 489 447 633 l 285 343 q 304 313 285 331 q 465 667 431 499 l 474 667 q 489 656 489 668 q 424 494 489 631 q 343 319 351 344 q 447 500 392 371 q 542 674 501 629 q 390 319 451 494 q 481 461 436 371 l 556 614 m 113 572 l 106 600 l 96 600 l 101 572 l 113 572 m 64 608 l 57 636 l 47 636 l 54 608 l 64 608 m 196 464 l 182 494 l 174 490 l 188 464 l 196 464 m 82 572 l 68 608 l 60 604 l 74 572 l 82 572 m 244 321 l 117 572 l 108 568 l 235 321 l 244 321 m 279 293 l 264 308 l 258 303 l 274 288 l 279 293 m 218 286 q 197 268 211 279 q 185 269 190 269 q 178 265 178 269 q 183 258 178 263 q 103 419 140 317 q 39 589 46 575 l 218 286 m 254 244 q 240 271 242 257 q 135 140 172 211 q 254 244 176 174 z "},"z":{"ha":646,"x_min":-24,"x_max":631,"o":"m 631 -12 q 472 44 581 11 q 88 76 268 76 q 53 71 76 76 q 19 65 31 65 q -24 60 -4 65 l 469 538 q 356 560 450 560 q 76 535 264 560 q 165 572 157 568 q 258 596 217 590 q 192 601 218 601 q 115 588 150 601 q 190 649 136 649 q 368 639 254 649 q 546 626 493 628 q 571 597 558 604 q 553 567 571 592 q 561 564 556 564 q 601 574 565 565 q 556 524 581 553 q 561 521 558 521 q 576 525 563 521 q 276 218 513 439 q 318 214 293 214 q 370 217 336 214 q 422 219 404 219 q 528 165 511 219 q 607 110 553 144 q 565 99 582 99 q 551 100 557 99 q 538 71 550 92 q 394 108 519 93 q 233 119 301 119 q 163 93 193 119 q 399 67 242 85 q 631 15 535 51 l 631 -12 m 468 572 l 468 583 l 326 583 l 326 572 l 468 572 m 306 614 l 306 625 l 272 632 l 272 621 l 306 614 m 482 475 l 475 479 l 389 386 l 396 382 l 482 475 m 251 621 l 251 631 l 164 631 l 164 621 l 251 621 m 451 497 l 447 504 l 181 256 l 183 249 l 451 497 m 529 140 q 463 136 518 140 q 396 133 425 133 l 390 133 q 448 129 410 133 q 506 125 486 125 q 529 140 515 125 m 414 194 l 414 204 l 356 204 l 356 194 l 414 194 m 308 269 l 303 276 l 233 221 l 239 213 l 308 269 m 511 163 q 439 179 478 179 q 199 139 258 179 q 511 163 304 151 m 329 189 l 329 199 l 254 199 l 254 189 l 329 189 m 129 133 l 122 154 l 113 154 l 119 131 l 129 133 m 136 97 l 69 107 q 31 90 56 101 q 136 97 58 97 z "},"{":{"ha":421,"x_min":4,"x_max":450,"o":"m 138 450 q 103 349 126 417 l 83 376 q 138 450 101 400 m 450 -251 q 409 -222 440 -249 q 371 -196 378 -196 q 358 -200 367 -196 q 344 -204 349 -204 q 243 -122 324 -204 q 143 -17 243 -122 q 221 -122 165 -65 q 311 -217 297 -200 q 300 -215 307 -217 q 289 -212 293 -212 q 279 -217 283 -212 q 328 -269 299 -231 q 135 -92 235 -210 q 4 131 25 38 q 69 8 25 68 q 161 -96 96 -26 q 69 53 160 -92 q 8 208 8 151 q 74 451 8 292 q 214 629 146 629 q 228 626 221 629 q 239 622 235 622 q 268 649 242 622 q 301 676 294 676 q 317 660 313 676 q 238 584 279 638 q 181 488 197 531 q 251 554 196 500 q 328 607 299 600 q 189 452 256 565 q 122 256 122 339 q 129 232 122 239 q 225 422 169 329 q 358 558 306 558 l 382 558 q 229 396 314 513 q 138 201 138 269 q 275 -31 138 157 q 450 -228 413 -219 l 450 -251 m 94 299 q 91 242 94 279 q 88 186 88 206 q 57 279 57 272 q 78 357 57 296 q 94 299 94 329 m 333 -165 l 331 -176 l 300 -150 l 303 -139 l 333 -165 z "},"|":{"ha":221,"x_min":4,"x_max":181,"o":"m 181 558 q 153 282 181 465 q 125 6 125 99 q 138 -121 125 -62 q 131 -124 136 -124 q 92 -100 104 -124 q 75 -53 86 -90 q 60 -74 72 -54 q 33 -7 38 -61 q 28 72 32 19 l 11 -53 l 4 35 q 53 426 22 165 l 53 658 q 73 651 61 661 q 88 632 85 642 q 100 667 90 644 q 117 597 106 643 q 83 349 100 563 q 68 79 68 156 q 82 -11 68 88 l 146 688 l 154 572 q 131 360 154 501 q 107 146 107 218 q 110 100 107 121 q 167 618 175 424 q 181 558 181 581 m 85 617 l 78 617 l 67 507 l 75 507 l 85 617 m 81 499 l 71 499 l 65 458 l 75 458 l 81 499 m 69 311 l 69 351 l 61 351 l 61 311 l 69 311 m 64 235 l 64 282 l 56 282 l 56 235 l 64 235 m 113 -10 l 113 36 l 104 36 l 104 -10 l 113 -10 m 60 -24 l 54 57 l 44 57 l 50 -24 l 60 -24 z "},"}":{"ha":489,"x_min":8,"x_max":454,"o":"m 375 376 l 356 349 q 321 450 344 382 q 375 376 339 425 m 401 279 q 371 186 401 272 q 367 242 371 206 q 364 299 364 279 q 381 357 364 329 q 401 279 401 296 m 8 -228 q 184 -32 47 -219 q 321 201 321 156 q 229 396 321 269 q 76 558 144 513 l 100 558 q 233 422 153 558 q 329 232 289 329 q 336 256 336 239 q 269 452 336 339 q 131 607 203 565 q 207 554 160 600 q 278 488 263 500 q 220 584 261 531 q 142 660 179 638 q 157 676 146 676 q 190 649 164 676 q 219 622 217 622 q 231 626 224 622 q 244 629 238 629 q 385 451 313 629 q 450 208 450 292 q 389 53 450 151 l 297 -96 q 389 8 363 -26 q 454 131 433 68 q 324 -92 433 38 q 131 -269 224 -210 q 179 -217 139 -251 q 169 -212 175 -212 q 158 -215 165 -212 q 147 -217 151 -217 q 238 -122 161 -200 q 315 -17 293 -65 q 215 -122 282 -53 q 114 -204 135 -204 q 101 -200 110 -204 q 88 -196 92 -196 q 49 -222 81 -196 q 8 -251 18 -249 l 8 -228 m 158 -150 l 128 -176 l 125 -165 l 156 -139 l 158 -150 z "},"~":{"ha":2010,"x_min":19,"x_max":1994,"o":"m 215 314 l 215 268 q 432 57 247 139 q 935 -53 678 -53 l 1083 -53 q 1803 268 1719 7 l 1803 314 q 1586 525 1772 442 q 1083 633 1343 633 l 935 633 q 215 314 299 575 m 896 653 q 1033 654 940 654 q 1310 638 1197 654 l 1413 622 l 1615 578 q 1994 318 1965 501 l 1994 268 q 1960 194 1981 217 q 1758 57 1875 103 q 1122 -67 1475 -56 q 989 -69 1035 -69 q 704 -51 838 -69 l 601 -37 l 399 7 q 169 90 269 35 q 19 268 36 164 l 19 318 q 54 392 33 368 q 256 529 135 482 q 896 653 542 642 m 425 371 l 425 235 l 536 235 l 536 371 l 575 371 l 575 243 q 533 203 575 203 l 428 203 q 386 243 386 203 l 386 371 l 425 371 m 726 340 l 726 203 l 688 203 l 688 340 l 610 340 l 610 371 l 804 371 l 804 340 l 726 340 m 853 331 q 894 371 853 371 l 1018 371 q 1058 331 1058 371 l 1058 243 q 1018 203 1058 203 l 894 203 q 853 243 853 203 l 853 331 m 892 235 l 1019 235 l 1019 340 l 892 340 l 892 235 m 1257 342 l 1169 342 l 1169 297 l 1257 297 q 1275 311 1275 297 l 1275 329 q 1257 342 1275 342 m 1131 203 l 1131 371 l 1275 371 q 1313 338 1313 371 l 1313 301 q 1275 268 1313 268 l 1169 268 l 1169 203 l 1131 203 m 1368 203 l 1368 371 l 1407 371 l 1407 203 l 1368 203 m 1521 269 l 1594 269 l 1558 338 l 1521 269 m 1446 203 l 1542 371 l 1579 371 l 1675 203 l 1631 203 l 1611 240 l 1504 240 l 1485 203 l 1446 203 z "},"":{"ha":339,"x_min":8,"x_max":314,"o":"m 314 651 q 253 593 272 625 q 314 622 289 618 q 69 414 232 556 l 71 426 q 42 450 74 450 l 15 444 q 12 459 15 450 q 8 474 8 468 q 94 588 8 493 q 206 690 181 682 q 201 674 201 664 q 217 668 201 664 q 153 596 190 633 q 86 528 124 567 q 185 606 119 554 q 275 672 269 672 q 281 660 281 672 q 304 656 281 656 q 314 651 311 656 m 250 589 l 244 597 l 224 582 l 228 574 l 250 589 m 226 571 l 219 579 l 193 558 l 199 550 l 226 571 m 196 547 l 190 554 l 163 535 l 168 526 l 196 547 m 163 522 l 157 531 l 90 475 l 96 467 l 163 522 z "},"":{"ha":339,"x_min":8,"x_max":314,"o":"m 314 651 q 253 593 272 625 q 314 622 289 618 q 69 414 232 556 l 71 426 q 42 450 74 450 l 15 444 q 12 459 15 450 q 8 474 8 468 q 94 588 8 493 q 206 690 181 682 q 201 674 201 664 q 217 668 201 664 q 153 596 190 633 q 86 528 124 567 q 185 606 119 554 q 275 672 269 672 q 281 660 281 672 q 304 656 281 656 q 314 651 311 656 m 250 589 l 244 597 l 224 582 l 228 574 l 250 589 m 226 571 l 219 579 l 193 558 l 199 550 l 226 571 m 196 547 l 190 554 l 163 535 l 168 526 l 196 547 m 163 522 l 157 531 l 90 475 l 96 467 l 163 522 z "},"":{"ha":331,"x_min":6,"x_max":335,"o":"m 335 678 q 256 553 303 636 q 176 426 204 464 q 158 444 164 444 q 140 439 163 444 l 135 440 q 174 563 160 524 q 232 672 201 636 l 200 575 q 224 614 213 578 q 251 667 238 656 q 261 636 254 656 q 293 665 285 663 q 335 678 301 668 m 132 636 q 108 526 132 599 q 56 433 82 444 q 50 493 56 453 q 35 419 35 458 q 24 417 31 417 q 6 429 6 417 q 29 563 6 463 q 68 685 53 668 q 81 661 71 676 q 93 685 83 669 l 96 621 q 78 519 96 556 l 81 493 q 115 675 118 613 q 132 636 132 667 m 260 636 l 250 636 l 243 608 l 253 608 l 260 636 m 247 606 l 239 606 l 178 465 l 186 463 l 247 606 m 79 660 l 69 660 l 51 493 l 61 493 l 79 660 z "},"":{"ha":331,"x_min":6,"x_max":335,"o":"m 335 678 q 256 553 303 636 q 176 426 204 464 q 158 444 164 444 q 140 439 163 444 l 135 440 q 174 563 160 524 q 232 672 201 636 l 200 575 q 224 614 213 578 q 251 667 238 656 q 261 636 254 656 q 293 665 285 663 q 335 678 301 668 m 132 636 q 108 526 132 599 q 56 433 82 444 q 50 493 56 453 q 35 419 35 458 q 24 417 31 417 q 6 429 6 417 q 29 563 6 463 q 68 685 53 668 q 81 661 71 676 q 93 685 83 669 l 96 621 q 78 519 96 556 l 81 493 q 115 675 118 613 q 132 636 132 667 m 260 636 l 250 636 l 243 608 l 253 608 l 260 636 m 247 606 l 239 606 l 178 465 l 186 463 l 247 606 m 79 660 l 69 660 l 51 493 l 61 493 l 79 660 z "},"":{"ha":339,"x_min":8,"x_max":314,"o":"m 314 651 q 253 593 272 625 q 314 622 289 618 q 69 414 232 556 l 71 426 q 42 450 74 450 l 15 444 q 12 459 15 450 q 8 474 8 468 q 94 588 8 493 q 206 690 181 682 q 201 674 201 664 q 217 668 201 664 q 153 596 190 633 q 86 528 124 567 q 185 606 119 554 q 275 672 269 672 q 281 660 281 672 q 304 656 281 656 q 314 651 311 656 m 250 589 l 244 597 l 224 582 l 228 574 l 250 589 m 226 571 l 219 579 l 193 558 l 199 550 l 226 571 m 196 547 l 190 554 l 163 535 l 168 526 l 196 547 m 163 522 l 157 531 l 90 475 l 96 467 l 163 522 z "},"":{"ha":331,"x_min":6,"x_max":335,"o":"m 335 678 q 256 553 303 636 q 176 426 204 464 q 158 444 164 444 q 140 439 163 444 l 135 440 q 174 563 160 524 q 232 672 201 636 l 200 575 q 224 614 213 578 q 251 667 238 656 q 261 636 254 656 q 293 665 285 663 q 335 678 301 668 m 132 636 q 108 526 132 599 q 56 433 82 444 q 50 493 56 453 q 35 419 35 458 q 24 417 31 417 q 6 429 6 417 q 29 563 6 463 q 68 685 53 668 q 81 661 71 676 q 93 685 83 669 l 96 621 q 78 519 96 556 l 81 493 q 115 675 118 613 q 132 636 132 667 m 260 636 l 250 636 l 243 608 l 253 608 l 260 636 m 247 606 l 239 606 l 178 465 l 186 463 l 247 606 m 79 660 l 69 660 l 51 493 l 61 493 l 79 660 z "}}}
